<svg width="73" height="124" viewBox="0 0 73 124" fill="none" xmlns="http://www.w3.org/2000/svg">
<path d="M69.06 3.04176C68.104 2.07793 66.9667 1.31292 65.7136 0.790852C64.4605 0.268787 63.1164 0 61.7589 0C60.4014 0 59.0573 0.268787 57.8042 0.790852C56.5511 1.31292 55.4138 2.07793 54.4578 3.04176L3.04176 54.4578C2.07793 55.4138 1.31291 56.5511 0.79085 57.8042C0.268785 59.0573 0 60.4014 0 61.7589C0 63.1164 0.268785 64.4605 0.79085 65.7136C1.31291 66.9667 2.07793 68.104 3.04176 69.06L54.4578 120.476C55.4138 121.44 56.5511 122.205 57.8042 122.727C59.0573 123.249 60.4014 123.518 61.7589 123.518C63.1164 123.518 64.4605 123.249 65.7136 122.727C66.9667 122.205 68.104 121.44 69.06 120.476C70.0238 119.52 70.7888 118.383 71.3109 117.13C71.8329 115.877 72.1017 114.532 72.1017 113.175C72.1017 111.817 71.8329 110.473 71.3109 109.22C70.7888 107.967 70.0238 106.83 69.06 105.874L24.8422 61.7589L69.06 17.6439C70.0238 16.688 70.7888 15.5506 71.3109 14.2975C71.8329 13.0444 72.1017 11.7003 72.1017 10.3428C72.1017 8.98533 71.8329 7.64126 71.3109 6.38815C70.7888 5.13505 70.0238 3.99771 69.06 3.04176Z" fill="white"/>
</svg>
