<svg width="74" height="125" viewBox="0 0 74 125" fill="none" xmlns="http://www.w3.org/2000/svg">
<path d="M69.9699 55.2969L18.5538 3.8809C17.595 2.9221 16.4568 2.16155 15.2041 1.64266C13.9513 1.12376 12.6087 0.856689 11.2527 0.856689C8.51431 0.856689 5.88803 1.94453 3.95167 3.8809C2.99288 4.83969 2.23232 5.97794 1.71343 7.23066C1.19453 8.48338 0.927466 9.82604 0.927466 11.182C0.927466 13.9204 2.0153 16.5467 3.95167 18.4831L48.1695 62.598L3.95167 106.713C2.98784 107.669 2.22283 108.806 1.70076 110.059C1.1787 111.312 0.909912 112.657 0.909912 114.014C0.909912 115.372 1.1787 116.716 1.70076 117.969C2.22283 119.222 2.98784 120.359 3.95167 121.315C4.90763 122.279 6.04496 123.044 7.29806 123.566C8.55117 124.088 9.89524 124.357 11.2527 124.357C12.6103 124.357 13.9543 124.088 15.2074 123.566C16.4605 123.044 17.5979 122.279 18.5538 121.315L69.9699 69.8991C70.9337 68.9431 71.6987 67.8058 72.2208 66.5527C72.7428 65.2996 73.0116 63.9555 73.0116 62.598C73.0116 61.2405 72.7428 59.8964 72.2208 58.6433C71.6987 57.3902 70.9337 56.2529 69.9699 55.2969Z" fill="white"/>
</svg>
