<?xml version="1.0" standalone="no"?>
<!DOCTYPE svg PUBLIC "-//W3C//DTD SVG 20010904//EN"
 "http://www.w3.org/TR/2001/REC-SVG-20010904/DTD/svg10.dtd">
<svg version="1.0" xmlns="http://www.w3.org/2000/svg"
 width="500.000000pt" height="500.000000pt" viewBox="0 0 500.000000 500.000000"
 preserveAspectRatio="xMidYMid meet">

<g transform="translate(0.000000,500.000000) scale(0.100000,-0.100000)"
fill="#000000" stroke="none">
<path d="M2848 4940 c13 -66 8 -127 -14 -157 -35 -47 -136 -91 -274 -119 -225
-46 -339 -113 -397 -232 -23 -48 -28 -70 -28 -137 0 -175 89 -264 317 -317 90
-20 128 -46 128 -87 0 -10 -23 -49 -50 -88 -84 -119 -100 -201 -57 -283 26
-50 54 -68 37 -25 -32 84 5 170 118 276 101 95 116 118 109 170 -9 71 -56 103
-205 143 -49 13 -102 31 -120 40 -123 63 -120 248 5 340 26 20 88 53 137 73
286 121 331 160 331 286 -1 55 -6 82 -23 112 l-21 40 7 -35z"/>
<path d="M2860 4630 c-27 -38 -81 -70 -205 -120 -169 -69 -224 -111 -245 -190
-14 -50 1 -109 36 -147 l25 -28 -22 38 c-26 46 -28 110 -5 155 27 52 91 97
219 151 130 55 187 93 212 142 20 38 12 37 -15 -1z"/>
<path d="M2071 4254 c-1 -61 3 -80 30 -132 16 -34 45 -73 62 -88 48 -41 142
-81 232 -99 91 -18 125 -36 125 -66 0 -11 5 -17 10 -14 16 10 12 40 -7 58 -10
8 -64 27 -120 40 -222 55 -307 134 -323 302 l-7 70 -2 -71z"/>
<path d="M1600 3769 c-144 -25 -253 -113 -302 -245 -20 -55 -22 -81 -27 -418
l-6 -358 -60 -57 c-34 -31 -97 -76 -143 -99 -87 -45 -102 -62 -102 -111 0 -37
27 -67 78 -88 61 -25 170 -102 200 -141 l27 -35 6 -416 c6 -459 7 -472 72
-567 61 -92 172 -152 299 -161 61 -5 68 -4 92 20 19 19 26 37 26 65 0 52 -29
77 -99 86 -95 12 -154 47 -189 111 -15 26 -18 85 -22 460 l-5 430 -29 52 c-26
47 -91 119 -156 172 -25 21 -25 21 -5 33 48 28 137 125 163 177 l27 56 5 360
c5 349 6 361 27 402 30 56 89 90 178 102 81 12 105 32 105 90 0 70 -56 98
-160 80z"/>
<path d="M3230 3773 c-36 -13 -60 -47 -60 -84 0 -57 24 -78 103 -89 105 -15
159 -50 193 -125 5 -11 11 -182 14 -380 5 -337 7 -363 26 -405 27 -57 63 -100
136 -161 33 -27 55 -49 50 -49 -5 0 -41 -29 -80 -65 -47 -44 -80 -85 -99 -123
l-28 -57 -5 -425 c-4 -371 -7 -429 -22 -455 -35 -64 -94 -99 -189 -111 -70 -9
-99 -34 -99 -86 0 -28 7 -46 26 -65 24 -24 31 -25 92 -20 127 9 238 69 299
161 55 80 65 130 70 338 l5 187 202 3 201 3 75 36 c130 63 224 183 250 319 14
73 13 675 -1 742 -29 136 -121 254 -248 316 l-76 37 -201 3 -201 3 -6 122 c-6
141 -22 200 -72 272 -44 64 -103 107 -181 133 -64 21 -150 34 -174 25z m836
-750 c58 -31 103 -79 130 -138 24 -49 24 -54 23 -395 0 -238 -4 -355 -12 -377
-24 -65 -73 -119 -133 -149 -57 -28 -64 -29 -236 -32 l-178 -3 0 138 c0 129 2
141 23 170 36 49 105 102 189 144 80 40 98 59 98 104 0 44 -17 63 -100 106
-87 45 -172 115 -195 160 -11 20 -15 64 -15 164 l0 137 183 -4 c165 -3 186 -5
223 -25z"/>
<path d="M2095 3315 c-161 -22 -275 -46 -350 -73 -142 -50 -188 -99 -155 -162
29 -54 208 -118 425 -152 195 -31 696 -33 880 -4 153 23 296 60 363 92 210
102 91 212 -307 285 -100 19 -160 22 -436 25 -233 2 -347 -1 -420 -11z"/>
<path d="M1701 2831 c-52 -49 -75 -113 -76 -208 0 -75 2 -85 25 -108 77 -77
187 -30 225 97 28 95 30 132 6 181 -24 49 -53 67 -110 67 -29 0 -47 -7 -70
-29z m114 -46 c30 -29 32 -68 9 -146 -18 -62 -57 -109 -90 -109 -28 0 -64 44
-64 78 0 52 40 161 67 181 33 27 49 26 78 -4z"/>
<path d="M3088 2824 c-58 -35 -68 -50 -47 -71 9 -9 21 -7 50 8 22 11 39 18 40
17 0 -2 15 -56 33 -121 36 -129 37 -126 -26 -141 -28 -6 -39 -38 -18 -51 13
-8 212 44 229 61 12 11 12 16 1 29 -13 16 -27 15 -82 -1 -10 -3 -18 2 -21 13
-3 10 -22 80 -43 156 -21 75 -43 137 -48 136 -6 0 -37 -16 -68 -35z"/>
<path d="M2052 2765 c-38 -32 -62 -92 -69 -175 -10 -118 35 -190 119 -190 33
0 47 7 78 38 23 23 43 55 50 82 19 67 17 169 -3 207 -34 64 -122 83 -175 38z
m105 -40 c30 -21 38 -73 25 -152 -13 -76 -40 -113 -84 -113 -40 0 -64 40 -61
106 3 77 20 130 50 153 31 25 42 26 70 6z"/>
<path d="M2757 2770 c-14 -11 -33 -40 -43 -65 -33 -87 6 -245 71 -285 98 -61
196 27 181 163 -9 87 -26 136 -62 173 -27 29 -38 34 -76 34 -30 0 -54 -7 -71
-20z m94 -40 c31 -17 50 -67 56 -146 7 -95 -9 -127 -65 -122 -51 4 -72 44 -79
147 -5 75 -4 80 20 105 29 29 39 31 68 16z"/>
<path d="M2422 2749 c-63 -20 -84 -41 -64 -61 8 -8 23 -8 51 0 l41 10 0 -129
0 -129 -45 0 c-33 0 -47 -5 -52 -16 -12 -31 25 -44 127 -44 102 0 139 13 127
44 -5 11 -19 16 -52 16 l-45 0 0 165 c0 126 -3 165 -12 164 -7 0 -41 -10 -76
-20z"/>
<path d="M3082 2330 c-58 -35 -75 -107 -48 -205 16 -63 37 -104 69 -133 48
-45 138 -38 172 14 53 81 7 273 -78 325 -41 24 -74 24 -115 -1z m89 -50 c25
-14 54 -72 68 -137 13 -65 0 -110 -37 -124 -55 -21 -111 57 -120 167 -4 53 -2
68 13 84 20 22 46 25 76 10z"/>
<path d="M1650 2325 c-20 -24 5 -45 52 -45 31 0 39 -3 35 -14 -3 -8 -11 -34
-17 -58 -6 -24 -20 -73 -31 -110 -19 -65 -20 -67 -45 -58 -14 6 -36 10 -50 10
-19 0 -24 -5 -24 -24 0 -21 10 -26 113 -55 103 -28 113 -29 124 -14 17 22 1
41 -43 49 -19 3 -34 11 -34 18 0 6 18 76 40 156 22 80 40 148 40 151 0 3 -33
7 -73 8 -56 1 -77 -2 -87 -14z"/>
<path d="M2043 2260 c-57 -34 -85 -105 -86 -215 -1 -100 44 -158 124 -158 46
0 80 26 112 88 16 31 21 59 21 130 1 103 -14 138 -71 161 -43 19 -62 18 -100
-6z m104 -67 c32 -48 19 -173 -23 -223 -32 -38 -65 -39 -94 -2 -20 24 -22 35
-17 99 8 101 38 153 88 153 20 0 34 -8 46 -27z"/>
<path d="M2745 2253 c-78 -32 -95 -47 -74 -69 15 -14 20 -14 53 0 28 12 38 12
41 3 8 -22 32 -232 28 -239 -2 -5 -17 -8 -32 -8 -36 0 -66 -22 -58 -44 8 -19
14 -19 141 -1 104 15 123 23 112 50 -4 13 -17 16 -51 14 -24 -2 -47 -1 -49 2
-3 3 -14 74 -26 159 -11 84 -21 154 -23 155 -1 1 -29 -9 -62 -22z"/>
<path d="M2371 2219 c-40 -39 -54 -96 -49 -191 4 -60 10 -85 29 -112 56 -82
157 -74 206 17 24 45 24 199 0 244 -42 79 -130 99 -186 42z m116 -43 c25 -22
28 -31 31 -103 4 -89 -6 -125 -42 -148 -51 -34 -95 11 -103 106 -8 88 27 167
74 169 7 0 24 -11 40 -24z"/>
<path d="M3113 1783 c-65 -39 -74 -52 -48 -73 12 -10 21 -8 50 8 19 12 36 18
39 14 6 -10 66 -235 63 -238 -1 -1 -17 -6 -36 -11 -41 -10 -62 -36 -44 -54 10
-10 31 -7 95 10 145 39 149 41 146 64 -3 23 -18 26 -73 13 l-31 -7 -28 103
c-51 186 -57 208 -64 208 -4 0 -35 -17 -69 -37z"/>
<path d="M1694 1795 c-10 -24 5 -35 47 -35 24 0 39 -5 39 -12 0 -7 -14 -64
-31 -126 -35 -124 -28 -118 -100 -96 -9 2 -22 -3 -29 -11 -21 -25 3 -39 112
-70 98 -27 128 -28 128 -2 0 20 -19 33 -58 42 -19 4 -32 12 -29 18 2 7 21 72
41 145 20 73 40 140 43 148 4 11 -10 14 -76 14 -62 0 -83 -3 -87 -15z"/>
<path d="M2093 1737 c-66 -37 -109 -180 -83 -277 17 -64 58 -100 112 -100 76
0 122 54 140 166 14 93 4 146 -36 189 -27 29 -41 35 -72 35 -22 -1 -49 -6 -61
-13z m92 -62 c21 -20 25 -34 25 -82 0 -75 -16 -130 -45 -159 -31 -31 -50 -30
-82 2 -24 24 -25 30 -21 102 5 85 26 138 61 152 32 13 36 12 62 -15z"/>
<path d="M2782 1734 c-37 -26 -55 -72 -54 -144 0 -95 17 -148 62 -192 48 -48
101 -53 149 -13 42 36 55 83 47 173 -12 125 -61 192 -140 192 -23 0 -52 -7
-64 -16z m96 -50 c31 -21 40 -41 51 -115 13 -76 4 -116 -30 -141 -22 -16 -29
-17 -52 -7 -40 18 -61 72 -61 162 -1 71 1 81 23 98 28 23 40 24 69 3z"/>
<path d="M2437 1703 c-61 -16 -78 -33 -58 -57 9 -11 20 -12 44 -5 18 5 35 9
39 9 5 0 8 -56 8 -125 l0 -125 -33 0 c-18 0 -42 -6 -52 -14 -16 -12 -17 -16
-6 -30 19 -23 239 -24 247 -1 10 25 -16 45 -57 45 l-39 0 0 160 c0 182 8 169
-93 143z"/>
<path d="M892 1018 c-17 -17 -15 -24 9 -47 l21 -19 -67 -126 c-59 -112 -69
-125 -85 -116 -28 15 -52 2 -48 -27 2 -21 24 -36 126 -90 170 -90 229 -89 268
4 12 27 12 39 1 71 -13 38 -13 39 14 54 61 35 73 114 26 170 -22 28 -215 138
-240 138 -7 0 -18 -5 -25 -12z m146 -122 c85 -43 104 -85 51 -115 -24 -13 -31
-13 -70 2 -24 10 -53 24 -63 32 -20 15 -20 16 2 60 12 25 24 45 27 45 3 0 27
-11 53 -24z m-80 -160 c71 -36 97 -69 93 -118 -3 -42 -81 -24 -178 39 l-22 15
22 44 c11 24 25 44 29 44 5 0 30 -11 56 -24z"/>
<path d="M3952 1017 c-6 -6 -20 -36 -31 -65 -21 -51 -20 -72 0 -72 10 0 59
104 59 126 0 19 -16 26 -28 11z"/>
<path d="M3972 859 c-127 -63 -143 -230 -29 -299 44 -28 127 -27 186 2 60 29
144 110 136 131 -13 32 -37 28 -92 -17 -67 -55 -134 -83 -171 -70 -14 5 -26
13 -26 17 -1 5 53 38 119 73 66 35 121 68 123 74 6 18 -45 76 -81 94 -48 22
-114 20 -165 -5z m138 -59 c18 -11 23 -7 -82 -63 -48 -26 -89 -43 -92 -39 -10
16 25 73 56 92 35 21 93 26 118 10z"/>
<path d="M3612 831 c-29 -10 -67 -31 -83 -47 -28 -27 -30 -33 -26 -83 4 -51 3
-54 -25 -63 -24 -8 -29 -15 -26 -37 3 -24 6 -26 44 -23 39 2 42 0 54 -30 6
-18 20 -54 30 -80 l19 -47 -37 -18 c-39 -19 -49 -48 -22 -65 20 -12 266 77
275 100 3 8 -1 22 -9 31 -14 13 -21 13 -68 -3 -29 -9 -58 -19 -64 -22 -9 -4
-55 104 -66 154 -2 9 19 22 56 35 69 26 89 48 64 73 -16 16 -21 16 -73 -4 -69
-27 -81 -27 -88 -3 -10 38 27 61 136 85 24 6 28 11 25 34 -2 22 -9 27 -33 29
-16 2 -54 -6 -83 -16z"/>
<path d="M1242 718 c-15 -15 -15 -23 1 -40 8 -8 21 -70 31 -150 l17 -137 -33
-30 c-39 -36 -34 -35 -88 -16 -48 17 -73 7 -68 -28 4 -27 191 -96 216 -81 24
16 25 30 3 51 -21 19 -21 20 110 141 72 66 140 122 152 124 17 2 22 10 22 32
0 26 -5 31 -55 48 -30 10 -60 16 -68 13 -21 -8 -25 -35 -8 -53 15 -17 11 -22
-53 -80 l-69 -61 -5 42 c-21 155 -21 147 6 147 25 0 42 23 31 42 -8 13 -91 48
-113 48 -9 0 -22 -5 -29 -12z"/>
<path d="M1792 663 c-6 -10 -13 -32 -16 -50 -7 -28 -12 -32 -44 -35 -30 -2
-38 -7 -40 -26 -3 -18 3 -26 27 -35 35 -13 36 -19 16 -102 -22 -89 -19 -117
13 -147 35 -33 83 -48 146 -47 78 2 101 11 104 42 2 15 0 27 -5 28 -4 0 -47 1
-95 2 -52 1 -92 7 -99 14 -9 9 -9 29 1 86 7 41 16 80 20 87 6 10 25 9 85 -5
71 -16 79 -16 94 -1 27 28 2 49 -80 66 l-74 16 3 48 c3 48 -9 76 -34 76 -7 0
-17 -8 -22 -17z"/>
<path d="M2655 596 c-69 -31 -115 -110 -115 -198 0 -144 79 -228 214 -228 88
0 181 54 174 102 -4 33 -36 34 -69 2 -25 -24 -40 -29 -98 -32 -67 -4 -70 -3
-107 31 -35 32 -38 39 -42 101 -7 111 33 166 122 166 60 0 93 -16 105 -52 8
-23 16 -29 33 -26 21 3 23 9 26 64 2 47 -1 64 -13 74 -13 11 -21 11 -36 2 -14
-9 -25 -9 -39 -2 -26 14 -119 12 -155 -4z"/>
<path d="M3096 545 c-71 -29 -80 -37 -71 -64 8 -26 26 -26 93 -1 66 25 108 26
121 1 13 -23 5 -31 -29 -31 -49 0 -119 -31 -150 -66 -89 -102 23 -205 156
-144 27 12 68 24 91 26 56 5 92 20 100 40 8 21 -21 44 -47 37 -11 -3 -20 -3
-20 0 0 22 -32 157 -42 175 -29 56 -108 66 -202 27z m168 -171 c8 -21 -9 -41
-55 -65 -45 -23 -104 -25 -112 -5 -9 22 40 64 86 75 62 13 74 13 81 -5z"/>
<path d="M2221 500 c-116 -28 -170 -163 -102 -257 37 -51 91 -73 179 -73 116
0 177 29 139 67 -13 13 -25 14 -80 4 -80 -14 -140 -3 -176 33 -14 14 -22 28
-19 31 3 4 67 1 143 -5 75 -6 140 -8 146 -5 25 16 -3 110 -48 157 -39 41 -121
63 -182 48z m93 -70 c27 -10 66 -45 66 -59 0 -8 -45 -6 -157 5 -59 6 -62 22
-10 48 37 18 65 20 101 6z"/>
</g>
</svg>
