<?xml version="1.0" standalone="no"?>
<!DOCTYPE svg PUBLIC "-//W3C//DTD SVG 20010904//EN"
 "http://www.w3.org/TR/2001/REC-SVG-20010904/DTD/svg10.dtd">
<svg version="1.0" xmlns="http://www.w3.org/2000/svg"
 width="1080.000000pt" height="1080.000000pt" viewBox="0 0 1080.000000 1080.000000"
 preserveAspectRatio="xMidYMid meet">

<g transform="translate(0.000000,1080.000000) scale(0.100000,-0.100000)"
fill="#000000" stroke="none">
<path d="M1918 10770 c-48 -9 -82 -32 -118 -82 l-30 -41 0 -604 0 -603 -110 0
c-138 0 -202 -24 -247 -91 -26 -40 -28 -50 -32 -171 -2 -87 -7 -128 -15 -129
-6 0 -265 0 -574 0 -349 0 -581 -3 -609 -10 -60 -13 -99 -41 -123 -89 -24 -46
-26 -129 -6 -168 19 -37 75 -89 109 -101 19 -7 228 -11 623 -11 l594 0 -2
-190 -3 -190 -590 -2 c-542 -3 -593 -4 -630 -21 -78 -35 -115 -93 -115 -181 0
-46 5 -61 32 -97 18 -23 46 -52 61 -63 28 -21 37 -21 638 -24 l609 -3 0 -189
0 -190 -597 -2 c-679 -3 -644 1 -711 -88 -32 -42 -34 -48 -30 -112 3 -57 8
-73 34 -105 17 -21 46 -47 65 -58 33 -19 55 -20 637 -23 l602 -3 0 -189 0
-189 -602 -3 c-587 -3 -604 -4 -638 -23 -19 -12 -50 -41 -68 -65 -32 -42 -34
-48 -30 -112 3 -57 8 -73 34 -104 17 -21 46 -47 65 -59 33 -20 48 -20 634 -20
l600 0 3 -192 2 -192 -609 -3 -609 -3 -39 -31 c-64 -52 -83 -88 -83 -159 0
-53 4 -68 30 -104 63 -86 16 -81 703 -81 l607 0 0 -195 0 -195 -595 0 c-662 0
-633 3 -697 -68 -44 -49 -52 -74 -46 -147 6 -65 40 -116 100 -145 40 -19 62
-20 640 -20 l598 0 -2 -192 -3 -193 -610 -5 c-686 -6 -636 0 -696 -84 -25 -33
-29 -48 -29 -100 1 -81 29 -132 96 -168 l49 -28 598 0 597 0 0 -190 c0 -145
-3 -190 -12 -191 -7 0 -278 -1 -603 -2 l-590 -2 -38 -24 c-22 -13 -52 -42 -68
-64 -25 -34 -29 -49 -29 -103 0 -55 4 -68 33 -106 65 -87 32 -83 710 -86 l597
-3 0 -189 c0 -145 -3 -190 -12 -190 -7 0 -272 0 -588 0 -363 0 -588 -4 -610
-10 -41 -12 -82 -46 -110 -92 -50 -82 -8 -221 80 -262 17 -8 207 -13 630 -16
l605 -5 3 -193 c2 -150 0 -192 -10 -192 -7 0 -272 0 -589 0 -598 0 -615 -1
-669 -42 -100 -77 -91 -242 17 -310 l38 -23 607 -3 606 -3 4 -127 c3 -134 10
-156 65 -210 35 -35 66 -42 182 -42 70 0 113 -4 124 -13 15 -11 17 -64 19
-617 l3 -606 25 -31 c49 -60 87 -78 162 -77 60 0 72 4 105 30 21 17 47 48 58
70 19 37 20 64 25 639 l5 600 181 3 c142 2 184 0 192 -11 8 -10 12 -191 14
-618 l3 -604 25 -33 c41 -55 86 -77 157 -77 52 0 68 5 105 30 23 17 52 48 63
70 19 38 20 63 22 635 2 327 3 598 3 603 0 4 83 7 184 7 135 0 186 -3 193 -12
6 -8 11 -248 12 -607 2 -327 5 -601 9 -610 26 -71 94 -115 177 -115 51 0 69 5
106 30 78 52 74 17 77 688 2 417 6 604 13 613 9 10 54 13 190 13 98 0 180 -4
183 -9 3 -5 7 -276 8 -602 3 -571 4 -596 23 -634 11 -22 39 -53 62 -69 37 -25
52 -30 106 -30 70 0 109 21 157 86 l25 33 5 610 5 610 190 0 190 0 5 -605 c4
-539 7 -608 22 -635 57 -104 182 -133 277 -64 81 58 75 9 81 694 l5 610 190 0
190 0 2 -575 c2 -365 6 -594 13 -626 33 -158 237 -189 341 -51 l24 32 5 610 5
610 188 3 c146 2 187 0 187 -10 -2 -491 8 -1180 18 -1209 18 -55 76 -106 131
-117 88 -19 161 11 211 85 l25 37 0 595 c0 328 4 602 8 609 6 9 56 12 193 12
l184 0 0 -591 0 -590 26 -55 c37 -78 81 -105 169 -105 60 0 72 3 104 29 20 16
46 44 59 62 l22 33 2 576 c2 664 1 618 14 631 7 7 76 9 190 8 l179 -3 5 -600
c5 -584 6 -601 26 -640 11 -22 39 -53 61 -69 35 -24 51 -28 107 -28 56 0 71 4
100 26 19 14 45 41 58 58 l23 33 5 610 5 610 190 0 190 0 5 -612 5 -611 31
-39 c46 -56 86 -76 154 -76 70 0 111 21 157 82 l33 43 0 604 0 604 23 5 c12 2
72 6 134 7 124 3 139 9 197 82 30 37 31 40 35 167 l3 129 587 0 c353 0 600 4
620 10 69 19 131 105 131 180 0 66 -43 134 -105 168 -27 15 -92 17 -630 18
l-600 2 0 193 0 194 606 5 605 5 41 27 c127 84 99 288 -46 337 -25 8 -203 11
-610 11 -317 0 -582 0 -588 0 -10 0 -13 45 -13 190 0 145 3 190 13 190 6 0
266 0 577 0 381 0 578 4 605 11 162 45 196 247 57 344 l-44 30 -601 1 -602 2
-3 191 -2 191 590 0 c510 0 596 2 628 15 139 59 164 240 44 332 l-37 28 -610
5 -610 5 -3 193 -2 192 597 0 598 1 45 22 c56 29 99 100 100 165 0 72 -57 156
-123 181 -19 7 -227 11 -623 11 l-594 0 0 195 0 195 600 0 c570 0 603 1 638
19 145 74 133 282 -20 346 -32 13 -118 15 -628 15 l-590 0 2 193 3 192 595 0
595 0 44 25 c127 71 133 244 11 325 l-45 30 -603 3 -602 3 2 189 3 190 600 3
600 2 45 30 c82 56 110 144 74 231 -19 46 -46 74 -94 100 -33 18 -69 19 -632
22 l-598 3 0 189 0 189 603 3 c538 3 605 5 632 20 37 20 68 53 89 95 48 96
-19 230 -128 253 -32 7 -263 12 -621 13 l-570 2 -3 193 -2 192 587 0 c354 0
602 4 622 10 66 19 131 105 131 173 0 42 -24 104 -53 135 -48 52 -33 51 -669
53 -328 1 -600 4 -606 8 -5 3 -11 60 -14 126 -4 108 -7 124 -30 160 -55 86
-101 105 -249 105 l-109 0 0 599 0 599 -32 48 c-46 66 -86 86 -169 82 -73 -4
-104 -22 -148 -86 l-26 -37 -3 -603 -2 -602 -193 2 -192 3 -5 600 c-6 662 -2
632 -70 688 -36 31 -82 41 -151 35 -60 -6 -110 -48 -140 -116 -18 -41 -19 -77
-19 -628 l0 -584 -189 0 -188 0 -7 38 c-3 20 -6 290 -6 600 l0 563 -22 39
c-13 21 -41 50 -63 65 -36 24 -48 26 -112 23 -69 -3 -74 -5 -112 -42 -72 -70
-71 -59 -71 -708 l0 -578 -190 0 -190 0 0 33 c0 17 -1 286 -2 597 -3 527 -4
567 -21 599 -45 82 -98 108 -203 99 -47 -4 -60 -10 -94 -43 -71 -69 -70 -62
-70 -709 l0 -576 -189 0 -190 0 -3 604 -3 604 -30 44 c-38 54 -85 78 -153 78
-93 0 -160 -46 -181 -125 -6 -25 -11 -249 -12 -610 -1 -313 -4 -576 -6 -582
-4 -10 -52 -13 -194 -13 l-189 0 0 578 c0 360 -4 594 -11 622 -19 82 -88 131
-185 131 -85 0 -151 -49 -174 -129 -6 -23 -10 -250 -10 -619 l0 -583 -195 0
-195 0 0 578 c0 360 -4 594 -11 622 -18 80 -84 130 -172 131 -84 1 -138 -29
-175 -96 -15 -27 -17 -92 -20 -615 -1 -322 -2 -593 -2 -602 0 -17 -16 -18
-195 -18 l-195 0 0 588 c0 353 -4 601 -10 622 -14 51 -75 107 -130 119 -82 18
-168 -16 -210 -84 -18 -29 -19 -63 -21 -625 -1 -327 -4 -601 -7 -607 -3 -10
-51 -13 -193 -13 -144 0 -189 3 -190 13 0 6 -2 271 -3 587 -1 411 -5 585 -14
610 -29 87 -135 143 -224 119 -52 -14 -78 -31 -109 -71 l-24 -33 -5 -610 -5
-610 -192 -3 -193 -2 0 577 c0 594 -2 628 -40 678 -47 61 -115 88 -192 75z
m2267 -2680 c96 -9 252 -37 280 -50 11 -5 31 -12 45 -15 117 -31 295 -123 423
-218 55 -42 137 -120 137 -131 0 -7 -24 -49 -52 -94 -29 -45 -84 -132 -123
-193 -75 -118 -174 -272 -180 -278 -2 -2 -21 10 -42 27 -50 39 -163 108 -194
117 -13 4 -28 11 -34 15 -15 12 -161 41 -210 42 -91 1 -155 -43 -155 -107 0
-18 8 -39 18 -47 28 -26 144 -81 257 -123 67 -26 105 -42 231 -101 100 -47
229 -141 305 -222 106 -113 160 -224 191 -392 12 -65 5 -294 -9 -312 -5 -7
-15 -33 -22 -57 -34 -118 -148 -276 -268 -372 -41 -32 -78 -59 -83 -59 -5 0
-15 -6 -22 -12 -11 -11 -113 -63 -173 -89 -42 -18 -142 -48 -180 -54 -22 -4
-73 -13 -114 -22 -56 -12 -110 -14 -230 -10 -376 13 -668 95 -918 261 -83 54
-213 172 -213 192 0 8 12 33 27 57 56 89 98 154 135 209 21 31 38 59 38 62 0
3 15 28 33 54 19 26 36 52 38 57 11 26 74 125 81 125 3 0 19 -11 35 -24 67
-56 233 -146 298 -162 17 -4 35 -10 40 -15 12 -9 105 -25 197 -35 90 -9 160 9
193 48 45 53 25 105 -56 145 -65 32 -137 63 -144 63 -4 0 -21 6 -38 14 -18 8
-61 27 -97 41 -306 125 -485 270 -585 477 -71 145 -93 378 -49 522 99 328 377
560 772 643 141 29 278 37 417 23z m2770 -10 c17 -5 66 -14 110 -21 44 -6 85
-15 90 -19 6 -4 34 -13 63 -20 28 -6 55 -16 58 -21 3 -5 12 -9 19 -9 35 0 225
-101 320 -170 72 -53 155 -131 155 -147 0 -13 -46 -89 -131 -216 -22 -32 -39
-60 -39 -62 0 -2 -29 -49 -65 -104 -36 -55 -65 -103 -65 -107 0 -3 -13 -23
-28 -43 -15 -20 -47 -69 -70 -108 -24 -40 -46 -73 -49 -73 -3 0 -22 12 -42 28
-20 15 -43 32 -53 37 -104 61 -129 75 -135 75 -5 0 -21 7 -38 16 -16 8 -73 23
-127 32 -90 15 -105 15 -192 1 -128 -22 -210 -74 -277 -175 -58 -88 -74 -145
-73 -264 1 -166 51 -271 172 -362 106 -80 226 -103 378 -73 48 10 95 21 104
26 8 4 44 22 80 39 84 41 134 71 163 98 13 12 28 22 34 22 10 0 84 -112 257
-390 30 -47 95 -149 116 -180 43 -65 81 -141 75 -151 -21 -33 -163 -146 -240
-192 -110 -64 -226 -113 -385 -161 -86 -26 -314 -56 -426 -56 -56 0 -139 6
-185 14 -46 8 -106 17 -134 21 -27 4 -54 10 -60 15 -5 4 -35 13 -65 20 -30 7
-62 16 -70 20 -8 5 -60 30 -115 56 -149 72 -237 135 -366 263 -200 199 -299
379 -371 671 -20 85 -23 118 -23 315 1 197 3 229 23 305 77 286 179 467 368
657 144 143 260 219 479 314 93 40 264 78 405 89 100 9 312 2 355 -10z m-3340
-3022 c4 -13 13 -36 20 -53 7 -16 20 -50 28 -75 32 -91 48 -136 62 -167 8 -17
15 -35 15 -40 0 -18 49 -128 59 -131 5 -2 15 16 21 40 7 24 15 48 19 53 4 6
13 30 20 55 7 25 17 50 21 55 4 6 13 26 18 45 6 19 28 80 49 135 l38 100 408
3 408 2 -47 -87 c-26 -49 -64 -117 -84 -153 -21 -36 -55 -99 -77 -140 -119
-224 -136 -256 -143 -265 -4 -5 -30 -53 -58 -105 -27 -52 -62 -117 -76 -144
-14 -27 -26 -52 -26 -56 0 -4 91 -166 203 -361 112 -195 218 -381 237 -414 18
-33 46 -82 61 -110 16 -27 29 -53 29 -57 0 -5 -180 -8 -400 -8 -393 0 -399 0
-410 21 -16 29 -70 162 -70 172 0 4 -9 27 -19 50 -11 24 -23 56 -27 72 -4 17
-10 35 -14 40 -4 6 -13 27 -20 48 -7 22 -18 51 -26 65 -8 15 -14 34 -14 43 0
8 -6 23 -13 33 -11 15 -17 7 -46 -71 -18 -48 -37 -97 -42 -108 -4 -11 -22 -58
-40 -105 -17 -47 -38 -99 -45 -117 -8 -17 -14 -34 -14 -38 0 -3 -10 -29 -21
-56 l-21 -49 -405 0 c-340 0 -404 2 -400 14 3 7 84 150 180 317 96 167 185
324 199 349 14 25 36 63 48 85 13 22 34 60 48 85 13 24 32 56 43 71 19 26 18
27 -7 75 -61 116 -120 223 -154 284 -36 63 -80 145 -163 300 -22 41 -43 80
-47 85 -11 15 -120 223 -120 229 0 4 182 6 404 6 l405 0 6 -22z m2053 -925
l-3 -948 -350 0 -350 0 -3 948 -2 947 355 0 355 0 -2 -947z m977 930 c4 -10
16 -65 26 -123 10 -58 27 -154 38 -215 11 -60 28 -153 36 -205 9 -52 19 -108
24 -125 5 -16 12 -52 16 -80 5 -42 34 -203 51 -282 9 -45 20 -21 36 80 9 56
25 149 36 207 48 251 89 478 107 585 8 50 20 109 26 133 l12 42 389 0 390 0
-7 -37 c-3 -21 -13 -58 -21 -83 -25 -81 -54 -184 -60 -220 -4 -19 -10 -39 -14
-45 -4 -5 -13 -37 -20 -70 -7 -33 -15 -64 -19 -70 -3 -5 -14 -41 -24 -80 -10
-38 -24 -92 -32 -120 -30 -106 -57 -203 -74 -265 -10 -36 -20 -72 -24 -80 -3
-8 -13 -42 -21 -75 -8 -33 -24 -94 -36 -135 -31 -111 -58 -206 -79 -285 -43
-160 -83 -301 -91 -315 -6 -13 -69 -15 -460 -18 -250 -1 -458 2 -462 6 -9 9
-24 57 -58 187 -10 39 -28 104 -40 145 -12 41 -28 102 -36 135 -8 33 -18 67
-21 75 -4 8 -14 44 -24 80 -9 36 -27 99 -39 140 -12 41 -28 98 -36 125 -7 28
-23 84 -35 125 -11 41 -29 104 -38 140 -10 36 -20 72 -24 80 -3 8 -13 42 -21
75 -8 33 -24 94 -36 135 -23 79 -51 185 -76 284 -8 33 -19 67 -23 75 -5 9 -11
33 -15 54 l-7 37 389 0 c362 0 390 -1 397 -17z"/>
</g>
</svg>
