<?xml version="1.0" encoding="UTF-8"?>
<!-- Generator: visioncortex VTracer 0.6.3 -->
<svg version="1.1" xmlns="http://www.w3.org/2000/svg" width="1280" height="645">
<path d="M0 0 C126.06 0 252.12 0 382 0 C382 10.89 382 21.78 382 33 C381.67 33.33 381.34 33.66 381 34 C328.86 34 276.72 34 223 34 C223 143.23 223 252.46 223 365 C212.11 365 201.22 365 190 365 C190 255.77 190 146.54 190 34 C138.19 34 86.38 34 33 34 C33.06 95.2 33.06 95.2 33.16 156.41 C33.18 164.66 33.19 172.91 33.21 181.17 C33.21 182.72 33.21 182.72 33.21 184.3 C33.24 200.99 33.26 217.69 33.27 234.38 C33.29 251.51 33.31 268.65 33.35 285.79 C33.38 296.36 33.39 306.93 33.39 317.5 C33.39 324.75 33.41 332 33.43 339.25 C33.45 343.43 33.46 347.62 33.45 351.8 C33.44 355.63 33.45 359.47 33.47 363.3 C33.48 365.33 33.47 367.36 33.46 369.4 C33.53 377.65 34.96 384.34 38 392 C38.6 393.69 39.21 395.37 39.81 397.06 C48.02 416.85 64.23 430.98 83.75 439.06 C96.75 443.36 109.8 443.29 123.33 443.27 C125.36 443.28 127.39 443.28 129.41 443.29 C134.88 443.3 140.35 443.3 145.83 443.3 C150.41 443.3 154.99 443.31 159.57 443.31 C170.39 443.32 181.21 443.32 192.02 443.32 C203.15 443.31 214.28 443.32 225.41 443.34 C234.99 443.36 244.57 443.37 254.16 443.36 C259.87 443.36 265.58 443.36 271.29 443.38 C276.66 443.39 282.04 443.39 287.41 443.38 C289.37 443.37 291.33 443.38 293.29 443.38 C313.78 443.47 331.25 440.77 348 428 C348.76 427.47 349.52 426.93 350.3 426.38 C364.97 415.77 375.25 397.51 378.4 379.73 C379.12 374.82 379.55 369.95 380 365 C390.89 365 401.78 365 413 365 C413.43 367.93 413.87 370.86 414.31 373.88 C417.81 396.21 427.39 414.35 445.24 428.73 C450.13 432.25 455.67 434.78 461.17 437.19 C462.86 437.94 464.52 438.76 466.17 439.59 C477.61 444.34 491.13 443.29 503.26 443.26 C505.27 443.26 507.29 443.27 509.31 443.27 C514.76 443.28 520.21 443.28 525.66 443.27 C531.38 443.26 537.1 443.27 542.83 443.27 C552.43 443.28 562.04 443.27 571.65 443.26 C582.73 443.25 593.81 443.25 604.89 443.26 C614.44 443.27 623.98 443.27 633.52 443.27 C639.21 443.27 644.89 443.27 650.58 443.27 C655.93 443.28 661.28 443.27 666.63 443.26 C668.58 443.26 670.54 443.26 672.49 443.27 C693.49 443.38 693.49 443.38 713.38 437.25 C714.14 436.89 714.91 436.53 715.71 436.17 C720.99 433.64 725.64 430.93 730 427 C730.77 426.38 731.54 425.76 732.34 425.12 C748.3 411.79 757.9 392.65 760 372 C760.45 363.94 760.55 355.87 760.65 347.8 C760.7 344.2 760.77 340.61 760.88 337.01 C761 333.51 761.06 330.01 761.08 326.5 C761.11 324.54 761.19 322.59 761.27 320.63 C761.26 313.7 760.38 309.68 755.5 304.65 C754.77 303.89 754.77 303.89 754.04 303.12 C752.37 301.4 750.69 299.7 749 298 C747.74 296.71 746.47 295.43 745.21 294.14 C740.76 289.62 736.27 285.14 731.78 280.67 C730.06 278.95 728.35 277.23 726.63 275.52 C722.48 271.37 718.33 267.22 714.18 263.08 C709.35 258.25 704.52 253.42 699.68 248.59 C691.07 239.98 682.45 231.36 673.83 222.75 C665.46 214.4 657.1 206.04 648.74 197.68 C647.96 196.91 647.96 196.91 647.17 196.12 C644.58 193.52 641.98 190.93 639.39 188.34 C617.93 166.89 596.47 145.44 575 124 C576.77 120.19 578.95 117.93 582 115 C583.21 113.74 584.42 112.47 585.63 111.2 C586.94 109.84 588.25 108.48 589.56 107.12 C590.22 106.42 590.88 105.72 591.56 105 C592.2 104.34 592.84 103.69 593.5 103.01 C594.08 102.41 594.66 101.8 595.25 101.18 C597 100 597 100 598.89 100.24 C601.32 101.11 602.62 102.16 604.51 103.91 C605.53 104.84 605.53 104.84 606.57 105.8 C607.31 106.49 608.05 107.18 608.81 107.9 C609.6 108.63 610.39 109.36 611.21 110.11 C613.87 112.58 616.52 115.05 619.17 117.53 C621.07 119.3 622.97 121.07 624.88 122.83 C641.79 138.59 658.48 154.59 675.1 170.66 C677.98 173.45 680.87 176.24 683.76 179.03 C684.34 179.58 684.91 180.14 685.5 180.71 C693.58 188.51 701.76 196.19 710.02 203.8 C724.23 216.89 738.26 230.15 751.92 243.81 C752.45 244.34 752.98 244.86 753.52 245.41 C777.6 269.55 800.29 292.93 800.8 329.05 C800.6 343.68 798.42 357.87 794.94 372.05 C794.02 375.81 793.29 379.59 792.6 383.4 C792.4 384.54 792.19 385.67 791.98 386.84 C791.78 387.91 791.59 388.97 791.39 390.07 C788.88 403.86 783.03 415.97 776 428 C775.34 428 774.68 428 774 428 C773.76 428.72 773.52 429.44 773.27 430.19 C771.82 433.39 770.07 435.43 767.69 438 C766.47 439.31 766.47 439.31 765.23 440.65 C762.86 443.15 760.5 445.63 758 448 C757.38 448.59 756.76 449.18 756.12 449.79 C732.7 471.46 705.44 477.32 674.67 477.27 C672.54 477.28 670.41 477.28 668.27 477.29 C662.51 477.3 656.75 477.3 650.99 477.3 C646.16 477.3 641.34 477.31 636.51 477.31 C625.12 477.32 613.72 477.32 602.33 477.32 C590.61 477.31 578.89 477.32 567.17 477.34 C557.08 477.36 546.99 477.37 536.89 477.36 C530.88 477.36 524.87 477.36 518.85 477.38 C513.19 477.39 507.53 477.39 501.87 477.38 C499.81 477.37 497.74 477.38 495.68 477.38 C462.26 477.51 435.94 466.91 411.28 444.29 C407.49 440.48 404.26 436.27 401 432 C399.35 429.98 397.68 427.99 396 426 C395.61 426.59 395.23 427.18 394.83 427.79 C390.4 434.51 386.07 440.08 379.94 445.31 C377.86 447.08 377.86 447.08 375.56 449.5 C353.03 471.48 323.87 477.5 293.48 477.37 C291.37 477.37 289.27 477.38 287.16 477.38 C281.49 477.39 275.82 477.38 270.15 477.37 C264.19 477.36 258.23 477.36 252.27 477.36 C242.27 477.37 232.26 477.35 222.26 477.34 C210.72 477.32 199.19 477.31 187.65 477.32 C176.51 477.32 165.37 477.32 154.23 477.31 C149.51 477.3 144.79 477.3 140.07 477.3 C134.5 477.31 128.94 477.3 123.37 477.28 C121.34 477.28 119.3 477.28 117.27 477.28 C88.43 477.31 88.43 477.31 75.44 472.31 C74.73 472.05 74.03 471.79 73.3 471.52 C43.99 460.34 21.8 439.83 8.19 411.5 C3.55 400.63 -0.13 389.14 -0.12 377.26 C-0.12 376.61 -0.13 375.95 -0.13 375.28 C-0.13 373.09 -0.12 370.89 -0.12 368.7 C-0.12 367.11 -0.12 365.52 -0.12 363.93 C-0.13 359.57 -0.12 355.2 -0.12 350.84 C-0.11 346.13 -0.11 341.42 -0.11 336.72 C-0.11 328.56 -0.11 320.41 -0.11 312.25 C-0.1 300.46 -0.09 288.67 -0.09 276.88 C-0.09 257.75 -0.08 238.62 -0.08 219.48 C-0.07 200.9 -0.06 182.32 -0.05 163.73 C-0.05 162.58 -0.05 161.42 -0.05 160.23 C-0.05 151.18 -0.05 142.13 -0.05 133.08 C-0.04 88.72 -0.02 44.36 0 0 Z " fill="#000000" transform="translate(53,35)"/>
<path d="M0 0 C1.95 -0 3.89 -0 5.84 -0.01 C11.08 -0.01 16.33 -0.01 21.57 -0 C27.09 -0 32.6 -0 38.12 -0.01 C47.38 -0.01 56.63 -0.01 65.89 -0 C76.56 0 87.23 0 97.9 -0 C107.1 -0.01 116.29 -0.01 125.49 -0.01 C130.97 -0 136.44 -0 141.92 -0.01 C147.07 -0.01 152.22 -0.01 157.38 -0 C159.25 -0 161.13 -0 163.01 -0 C194.75 -0.04 194.75 -0.04 206.19 3.69 C207.02 3.95 207.86 4.21 208.71 4.48 C233.97 12.75 254.96 29.52 270.19 51.13 C273.66 47.95 276.24 44.06 278.96 40.25 C279.99 38.84 281.09 37.48 282.19 36.13 C282.85 36.13 283.51 36.13 284.19 36.13 C284.56 35.2 284.56 35.2 284.94 34.25 C286.42 31.74 287.63 31.37 290.19 30.13 C290.52 29.14 290.85 28.15 291.19 27.13 C297 22.15 303.38 17.62 310.19 14.13 C311.11 13.61 312.04 13.09 312.99 12.55 C320.03 8.75 327.07 6 334.75 3.75 C335.59 3.5 336.43 3.25 337.29 3 C350.49 -0.67 364.37 -0.02 377.96 0 C379.92 -0 381.89 -0 383.85 -0.01 C389.16 -0.01 394.47 -0.01 399.77 -0 C405.35 -0 410.93 -0 416.5 -0.01 C425.87 -0.01 435.23 -0.01 444.6 -0 C455.39 0 466.18 0 476.97 -0 C486.27 -0.01 495.57 -0.01 504.87 -0.01 C510.41 -0 515.95 -0 521.49 -0.01 C526.7 -0.01 531.91 -0.01 537.13 -0 C539.03 -0 540.93 -0 542.83 -0 C574.54 -0.04 574.54 -0.04 586.69 3.69 C587.57 3.95 588.45 4.22 589.36 4.49 C602.34 8.54 613.54 14.69 624.19 23.13 C625.03 23.75 625.87 24.38 626.73 25.02 C637.29 33.06 645.34 42.83 652.19 54.13 C652.86 55.2 653.53 56.27 654.22 57.38 C665.1 75.64 668.25 95.59 667.99 116.51 C667.98 118.73 667.99 120.95 667.99 123.17 C667.99 129.11 667.95 135.05 667.9 141 C667.86 147.24 667.85 153.48 667.85 159.72 C667.82 171.5 667.77 183.29 667.7 195.07 C667.64 204.49 667.6 213.9 667.58 223.32 C667.57 223.99 667.57 224.66 667.57 225.36 C667.55 231.21 667.54 237.06 667.52 242.91 C667.46 267.99 667.32 293.06 667.19 318.13 C604.49 318.13 541.79 318.13 477.19 318.13 C477.19 370.6 477.19 423.07 477.19 477.13 C413.83 477.13 350.47 477.13 285.19 477.13 C285.19 445.13 285.19 445.13 286.19 444.13 C288.23 444.03 290.27 444.01 292.31 444.01 C293.28 444.01 293.28 444.01 294.27 444.01 C296.45 444 298.63 444.01 300.81 444.02 C302.37 444.02 303.92 444.02 305.48 444.02 C309.72 444.02 313.96 444.02 318.2 444.03 C322.62 444.03 327.05 444.03 331.47 444.04 C339.86 444.04 348.25 444.05 356.63 444.06 C366.18 444.07 375.72 444.07 385.27 444.08 C404.91 444.09 424.55 444.11 444.19 444.13 C444.19 443.08 444.19 443.08 444.19 442 C444.17 400.43 444.15 358.86 444.14 317.3 C444.14 312.31 444.14 307.32 444.14 302.34 C444.14 301.35 444.14 300.35 444.14 299.33 C444.13 283.24 444.12 267.14 444.11 251.05 C444.11 234.55 444.1 218.04 444.1 201.54 C444.1 191.35 444.09 181.16 444.08 170.97 C444.08 163.99 444.08 157.01 444.08 150.03 C444.08 146 444.08 141.97 444.07 137.94 C444.07 134.25 444.07 130.57 444.07 126.88 C444.07 124.9 444.07 122.93 444.06 120.95 C444.06 119.79 444.07 118.63 444.07 117.44 C444.07 115.93 444.07 115.93 444.07 114.38 C444.19 112.13 444.19 112.13 445.19 111.13 C447.47 111.03 449.75 111 452.04 111 C452.72 111 453.4 110.99 454.11 110.99 C455.56 110.99 457.01 110.99 458.46 111 C460.68 111 462.91 111 465.13 110.99 C466.54 110.99 467.94 110.99 469.35 111 C470.64 111 471.92 111 473.25 111 C476.19 111.13 476.19 111.13 477.19 112.13 C477.29 114.37 477.31 116.61 477.31 118.86 C477.31 119.57 477.31 120.28 477.31 121.01 C477.32 123.41 477.31 125.81 477.31 128.22 C477.3 129.93 477.31 131.64 477.31 133.36 C477.31 138.03 477.3 142.7 477.29 147.37 C477.29 152.24 477.29 157.11 477.29 161.99 C477.28 171.23 477.27 180.46 477.26 189.7 C477.25 202.17 477.25 214.65 477.24 227.13 C477.23 246.79 477.21 266.46 477.19 286.13 C529 286.13 580.81 286.13 634.19 286.13 C634.16 253.28 634.16 253.28 634.08 220.44 C634.04 207.04 634 193.63 634 180.23 C633.99 170.47 633.97 160.71 633.93 150.94 C633.91 145.78 633.9 140.62 633.91 135.45 C633.91 130.58 633.9 125.71 633.86 120.84 C633.86 119.06 633.86 117.28 633.87 115.51 C633.97 94.35 627.59 75.08 613.19 59.13 C612.63 58.5 612.06 57.86 611.48 57.21 C599.45 44.44 581.59 35.3 563.98 34.67 C559.19 34.58 554.41 34.59 549.62 34.61 C547.46 34.61 545.3 34.6 543.14 34.59 C537.31 34.57 531.47 34.58 525.64 34.59 C519.52 34.6 513.4 34.59 507.28 34.59 C497 34.58 486.73 34.59 476.45 34.61 C464.59 34.63 452.73 34.62 440.87 34.6 C430.66 34.58 420.46 34.58 410.25 34.59 C404.16 34.6 398.08 34.6 391.99 34.58 C386.27 34.57 380.55 34.58 374.83 34.6 C372.73 34.61 370.64 34.61 368.55 34.6 C357.7 34.56 348.31 34.73 338.19 39.13 C336.51 39.72 334.82 40.3 333.13 40.88 C315.57 48.07 301.04 64.46 293.71 81.59 C290.92 89.02 289.17 96.26 288.19 104.13 C288.08 104.96 287.97 105.79 287.86 106.65 C287.62 108.48 287.4 110.3 287.19 112.13 C276.21 113.4 265.23 113.23 254.19 113.13 C253.95 111.46 253.95 111.46 253.71 109.75 C250.14 85.92 242.22 67.6 224.19 51.13 C223.53 50.8 222.87 50.47 222.19 50.13 C222.19 49.47 222.19 48.81 222.19 48.13 C221.48 47.86 220.77 47.59 220.03 47.31 C217.17 46.12 214.49 44.76 211.75 43.32 C197.61 36.32 186.61 34.39 171.05 34.45 C169.06 34.44 167.07 34.43 165.07 34.42 C159.69 34.39 154.31 34.38 148.94 34.39 C143.28 34.39 137.63 34.36 131.97 34.33 C122.48 34.3 112.98 34.28 103.48 34.27 C90.14 34.26 76.8 34.22 63.45 34.17 C54.16 34.13 44.86 34.11 35.57 34.08 C33.33 34.08 31.09 34.07 28.85 34.07 C22.46 34.05 16.06 34.04 9.67 34.03 C7.74 34.03 5.82 34.03 3.89 34.02 C-5.17 34 -14.21 34.06 -23.27 34.56 C-23.96 34.6 -24.65 34.64 -25.35 34.68 C-30.57 35.01 -35.24 35.93 -40.12 37.75 C-40.86 38.02 -41.6 38.28 -42.37 38.55 C-51.37 41.88 -59.1 46.16 -65.81 53.13 C-66.78 54.08 -67.76 55.02 -68.75 55.96 C-76.8 63.75 -76.8 63.75 -82.81 73.13 C-83.54 74.51 -83.54 74.51 -84.29 75.91 C-96.93 101.12 -100.61 141.6 -92.81 169.13 C-85.87 186.38 -70.7 199.24 -57.16 211.45 C-51.88 216.23 -46.79 221.21 -41.71 226.21 C-32.64 235.11 -23.44 243.85 -14.14 252.5 C-5.14 260.87 3.8 269.31 12.65 277.84 C13.2 278.37 13.75 278.9 14.32 279.45 C17.63 282.63 20.94 285.83 24.24 289.02 C29.04 293.66 33.85 298.29 38.66 302.92 C39.18 303.42 39.69 303.92 40.22 304.43 C47.36 311.31 54.54 318.13 61.77 324.92 C64.17 327.18 66.57 329.45 68.98 331.71 C72.52 335.05 76.07 338.37 79.64 341.69 C81.2 343.16 82.76 344.63 84.33 346.11 C85.05 346.77 85.76 347.43 86.5 348.1 C87.14 348.71 87.78 349.32 88.44 349.95 C89 350.47 89.56 350.99 90.14 351.53 C91.19 353.13 91.19 353.13 90.99 355.18 C89.78 358.13 87.77 359.89 85.5 362.11 C85.04 362.57 84.57 363.03 84.09 363.51 C82.61 364.97 81.12 366.43 79.63 367.88 C78.62 368.87 77.61 369.87 76.61 370.86 C74.14 373.29 71.67 375.71 69.19 378.13 C63.96 373.75 59.07 369.15 54.26 364.32 C53.5 363.55 52.73 362.78 51.94 361.99 C49.38 359.43 46.82 356.86 44.26 354.3 C42.42 352.46 40.58 350.61 38.74 348.77 C34.79 344.82 30.83 340.86 26.88 336.89 C21.16 331.17 15.45 325.44 9.73 319.72 C0.44 310.42 -8.84 301.13 -18.12 291.84 C-18.68 291.28 -19.23 290.73 -19.8 290.15 C-23.74 286.21 -27.68 282.26 -31.62 278.32 C-36.13 273.8 -40.64 269.29 -45.15 264.77 C-45.7 264.21 -46.26 263.66 -46.83 263.08 C-56.08 253.82 -65.34 244.55 -74.6 235.29 C-80.3 229.58 -86.01 223.86 -91.72 218.14 C-96.08 213.77 -100.45 209.4 -104.81 205.03 C-106.61 203.23 -108.4 201.44 -110.19 199.64 C-112.63 197.19 -115.07 194.75 -117.52 192.31 C-118.23 191.59 -118.95 190.87 -119.69 190.12 C-120.34 189.48 -120.99 188.83 -121.66 188.16 C-122.22 187.59 -122.79 187.03 -123.37 186.45 C-124.79 185.02 -124.79 185.02 -126.81 184.13 C-126.9 173.37 -126.97 162.62 -127.02 151.87 C-127.04 146.87 -127.06 141.87 -127.11 136.88 C-127.15 132.04 -127.18 127.2 -127.19 122.37 C-127.2 120.54 -127.21 118.71 -127.23 116.88 C-127.57 87.32 -118.48 61.82 -99.66 39.01 C-98.74 38.08 -98.74 38.08 -97.81 37.13 C-97.15 37.13 -96.49 37.13 -95.81 37.13 C-95.55 36.53 -95.28 35.93 -95.02 35.31 C-93.74 33 -92.55 31.83 -90.5 30.19 C-88.34 28.45 -86.41 26.72 -84.49 24.72 C-81.63 21.95 -78.6 19.8 -75.25 17.69 C-74.63 17.3 -74.01 16.91 -73.37 16.51 C-64.41 10.96 -55.61 6.84 -45.5 3.82 C-44.67 3.56 -43.84 3.31 -42.98 3.04 C-29.17 -0.85 -14.23 -0.02 0 0 Z " fill="#000000" transform="translate(559.808349609375,34.87060546875)"/>
<path d="M0 0 C2.48 -0.03 4.96 -0.05 7.44 -0.06 C8.14 -0.07 8.85 -0.08 9.58 -0.09 C11.39 -0.1 13.19 -0.05 15 0 C16.61 1.61 16.14 3.33 16.16 5.55 C16.17 6.52 16.18 7.48 16.19 8.48 C16.2 9.54 16.2 10.59 16.21 11.68 C16.24 13.89 16.27 16.1 16.3 18.31 C16.34 21.81 16.38 25.32 16.4 28.82 C16.43 32.19 16.47 35.56 16.52 38.93 C16.53 39.97 16.53 41.02 16.53 42.1 C16.56 43.57 16.56 43.57 16.58 45.06 C16.6 46.35 16.6 46.35 16.61 47.67 C17.09 50.51 18.07 51.89 20 54 C24.3 55.92 28.27 56.12 32.88 55.38 C36.15 53.93 37.35 53.12 39 50 C39.89 47.07 40.15 44.38 40.21 41.32 C40.23 40.4 40.25 39.48 40.27 38.53 C40.28 37.55 40.3 36.56 40.32 35.55 C40.34 34.53 40.36 33.52 40.38 32.47 C40.44 29.23 40.5 25.99 40.56 22.75 C40.61 20.55 40.65 18.35 40.69 16.16 C40.8 10.77 40.9 5.39 41 0 C43.48 -0.03 45.96 -0.05 48.44 -0.06 C49.14 -0.07 49.85 -0.08 50.58 -0.09 C52.39 -0.1 54.19 -0.05 56 0 C57.55 1.55 57.14 3.02 57.16 5.18 C57.17 6.07 57.18 6.95 57.19 7.87 C57.19 8.84 57.2 9.81 57.2 10.81 C57.21 11.8 57.21 12.8 57.22 13.83 C57.23 15.94 57.24 18.06 57.24 20.18 C57.25 23.39 57.28 26.61 57.31 29.82 C57.32 31.88 57.32 33.94 57.33 36 C57.34 36.95 57.35 37.9 57.37 38.88 C57.34 48 55.66 57.29 49 64 C40.92 69.91 31.68 71.84 21.83 70.6 C13.61 68.83 8.37 65.45 2.56 59.5 C-1.13 53.59 -0.13 45.99 -0.1 39.26 C-0.1 38.13 -0.09 37.01 -0.09 35.85 C-0.09 32.28 -0.08 28.7 -0.06 25.12 C-0.06 22.7 -0.05 20.27 -0.05 17.84 C-0.04 11.89 -0.02 5.95 0 0 Z " fill="#000000" transform="translate(53,550)"/>
<path d="M0 0 C5.28 0 10.56 0 16 0 C16.02 9.5 16.04 19 16.05 28.5 C16.06 32.91 16.06 37.32 16.08 41.74 C16.09 45.99 16.09 50.24 16.09 54.5 C16.1 56.12 16.1 57.75 16.11 59.37 C16.11 61.65 16.11 63.92 16.11 66.19 C16.12 67.48 16.12 68.77 16.12 70.11 C16 73 16 73 15 74 C12.98 74.07 10.96 74.08 8.94 74.06 C7.83 74.05 6.73 74.04 5.59 74.04 C4.74 74.02 3.88 74.01 3 74 C2.34 72.35 1.68 70.7 1 69 C0.15 69.62 -0.69 70.24 -1.56 70.88 C-7.03 74.47 -12.37 75.56 -18.8 74.59 C-23.58 73.31 -26.71 70.87 -29.51 66.81 C-33.35 60.14 -34.2 54.84 -34.25 47.25 C-34.27 46.48 -34.29 45.7 -34.31 44.91 C-34.36 37.41 -32.7 31.22 -27.5 25.62 C-26.62 24.65 -26.62 24.65 -25.72 23.66 C-21.93 20 -18.84 19.34 -13.79 18.89 C-9.09 19.08 -5.16 20.94 -1 23 C0.24 21.98 0.24 21.98 0.11 19.87 C0.11 18.95 0.1 18.03 0.1 17.09 C0.09 16.1 0.09 15.11 0.09 14.09 C0.08 13.05 0.07 12.01 0.06 10.94 C0.06 9.89 0.05 8.85 0.05 7.77 C0.04 5.18 0.02 2.59 0 0 Z M-15 35 C-18.33 39.81 -19.74 44.1 -19 50 C-18 53.9 -16.94 57.06 -14.06 59.94 C-10.76 61.64 -9.1 62.32 -5.44 61.25 C-2.24 59.65 -2.24 59.65 0 57 C1.43 50.44 1.41 43.58 0 37 C-2.41 34.12 -4.05 33.36 -7.5 32.06 C-11.02 31.97 -12.31 32.72 -15 35 Z " fill="#000000" transform="translate(565,546)"/>
<path d="M0 0 C5.28 0 10.56 0 16 0 C16.02 8.91 16.04 17.82 16.05 26.73 C16.06 30.87 16.06 35.01 16.08 39.14 C16.09 43.14 16.09 47.13 16.09 51.13 C16.1 52.65 16.1 54.17 16.11 55.69 C16.11 57.83 16.11 59.96 16.11 62.1 C16.12 63.31 16.12 64.53 16.12 65.78 C16.01 68.65 15.66 71.21 15 74 C11.29 74.29 7.7 74.45 4 74 C1.31 71.5 1.31 71.5 0 69 C-0.68 69.62 -1.36 70.24 -2.06 70.88 C-6.6 74.16 -10.36 75.03 -15.94 74.94 C-21.56 73.97 -26.11 71.49 -29.58 66.91 C-35.01 57.76 -35.21 46.57 -33.31 36.25 C-31.75 30.28 -29.01 24.94 -23.69 21.56 C-17.96 18.79 -13.15 18.41 -7.19 20.38 C-5.79 20.91 -4.39 21.45 -3 22 C-2.01 22.33 -1.02 22.66 0 23 C0 15.41 0 7.82 0 0 Z M-15 34 C-18.25 38.12 -18.46 41.93 -18.38 47 C-18.39 47.7 -18.4 48.4 -18.41 49.12 C-18.38 53.57 -17.81 56.51 -15 60 C-11.01 61.81 -8.97 62.3 -4.75 61 C-1.28 58.48 -0.3 57.12 1 53 C1.62 46.68 2.13 40.19 -2 35 C-6.87 32.06 -9.9 31.22 -15 34 Z " fill="#000000" transform="translate(453,546)"/>
<path d="M0 0 C4.95 0 9.9 0 15 0 C15 24.42 15 48.84 15 74 C11.04 74 7.08 74 3 74 C2.01 72.35 1.02 70.7 0 69 C-0.48 69.35 -0.97 69.7 -1.47 70.06 C-7.07 73.86 -11.5 75.74 -18.29 74.62 C-24.24 73.03 -27.7 70.15 -31 65 C-31.54 64.17 -32.08 63.33 -32.63 62.47 C-34.57 57.54 -34.51 53 -34.5 47.75 C-34.53 46.76 -34.56 45.78 -34.59 44.76 C-34.61 36.93 -32.75 30.4 -27.59 24.35 C-22.97 20.11 -18.2 18.93 -12.06 19.12 C-8 20 -8 20 0 24 C0 16.08 0 8.16 0 0 Z M-16 35 C-20.17 41.26 -19.18 48.75 -17.86 55.87 C-16.75 58.61 -15.55 59.54 -13 61 C-10.26 61.59 -7.75 61.5 -5 61 C-1.2 58.4 -0.04 55.4 1 51 C1.53 45.34 0.72 40.03 -2 35 C-7.72 31.15 -10.17 31.72 -16 35 Z " fill="#000000" transform="translate(698,546)"/>
<path d="M0 0 C32.57 0 32.57 0 41.06 5.75 C45.97 10.66 47.16 15.16 47.38 21.94 C47.17 28.84 45.99 34.1 41.31 39.31 C33.78 46.04 24.56 45.57 15 46 C15 53.92 15 61.84 15 70 C10.05 70 5.1 70 0 70 C0 46.9 0 23.8 0 0 Z M15 14 C15 19.94 15 25.88 15 32 C23.15 32.53 23.15 32.53 29 29 C31.56 25.59 31.52 22.14 31 18 C28.31 14.9 26.44 14.1 22.44 13.19 C18.87 12.82 18.87 12.82 15 14 Z " fill="#000000" transform="translate(983,550)"/>
<path d="M0 0 C-0.57 3.45 -1.44 6.22 -3.06 9.31 C-3.42 10.01 -3.79 10.71 -4.16 11.43 C-4.44 11.95 -4.71 12.46 -5 13 C-5.61 12.78 -6.21 12.57 -6.84 12.34 C-12.99 10.3 -20.83 7.92 -27 11 C-27.47 12.9 -27.47 12.9 -27.62 15.06 C-27.75 16.36 -27.87 17.66 -28 19 C-27.27 19.28 -26.55 19.57 -25.8 19.86 C-6.32 27.8 -6.32 27.8 -1.5 35.31 C0.8 40.96 1.37 45.61 0.44 51.62 C-2.05 57.47 -5.39 61.49 -11.12 64.38 C-21.44 68.35 -31.6 67.14 -42 64 C-42.99 63.34 -43.98 62.68 -45 62 C-45.22 59.37 -45.28 56.99 -45.19 54.38 C-45.17 53.67 -45.16 52.96 -45.15 52.23 C-45.11 50.49 -45.06 48.74 -45 47 C-44.41 47.2 -43.82 47.41 -43.21 47.62 C-42.42 47.89 -41.63 48.16 -40.81 48.44 C-40.04 48.7 -39.26 48.97 -38.46 49.25 C-33.88 50.65 -29.66 51.16 -24.88 51.19 C-23.84 51.2 -22.81 51.22 -21.74 51.23 C-18.78 51.2 -18.78 51.2 -16 49 C-15.33 46.59 -15.33 46.59 -16 44 C-19.31 40.96 -22.67 39.08 -26.75 37.25 C-33.58 33.91 -39.91 29.93 -43.56 23.06 C-44.7 15.07 -44.51 8.66 -39.81 1.81 C-29.17 -8.83 -12.41 -5.35 0 0 Z " fill="#000000" transform="translate(841,554)"/>
<path d="M0 0 C5.28 0 10.56 0 16 0 C16.04 2.64 16.07 5.27 16.11 7.99 C16.16 10.54 16.21 13.09 16.26 15.64 C16.3 17.42 16.32 19.19 16.35 20.97 C16.38 23.52 16.43 26.06 16.49 28.61 C16.49 29.41 16.5 30.2 16.51 31.02 C16.58 35.26 16.58 35.26 18.42 38.97 C20.44 40.28 21.57 40.86 24 41 C28.38 39.42 28.38 39.42 31.15 35.86 C32.2 32.33 32.35 28.95 32.41 25.29 C32.43 24.57 32.45 23.84 32.47 23.09 C32.53 20.79 32.58 18.49 32.62 16.19 C32.66 14.62 32.7 13.05 32.74 11.49 C32.84 7.66 32.92 3.83 33 0 C38.28 0 43.56 0 49 0 C49 17.82 49 35.64 49 54 C45.04 54 41.08 54 37 54 C36.34 52.35 35.68 50.7 35 49 C34.47 49.35 33.93 49.7 33.38 50.06 C26.35 54.35 20.41 55.73 12.25 54.38 C7.76 52.47 4.21 50.55 2.09 46.08 C0.17 40.45 -0.41 35.51 -0.29 29.59 C-0.29 28.74 -0.28 27.88 -0.28 27.01 C-0.26 24.32 -0.23 21.63 -0.19 18.94 C-0.17 17.1 -0.16 15.26 -0.15 13.42 C-0.11 8.95 -0.06 4.47 0 0 Z " fill="#000000" transform="translate(1093,566)"/>
<path d="M0 0 C5.28 5.79 6.01 12.11 5.89 19.62 C5.89 20.42 5.89 21.23 5.88 22.06 C5.88 23.74 5.86 25.43 5.84 27.11 C5.81 29.7 5.8 32.29 5.8 34.88 C5.79 36.52 5.78 38.16 5.77 39.8 C5.76 40.97 5.76 40.97 5.75 42.15 C5.68 47.58 5.68 47.58 4.56 49.81 C0.93 49.81 -2.7 49.81 -6.44 49.81 C-7.1 47.83 -7.76 45.85 -8.44 43.81 C-9.95 44.99 -9.95 44.99 -11.5 46.19 C-17.59 50.48 -22.85 51.07 -30.11 50.3 C-35.18 49.24 -37.45 46.99 -40.44 42.81 C-43.52 37.62 -42.99 31.85 -41.94 26.06 C-39.08 21.77 -34.95 18.49 -29.94 17.14 C-27.31 16.78 -24.71 16.57 -22.06 16.44 C-20.71 16.34 -20.71 16.34 -19.33 16.23 C-16.37 16.01 -13.41 15.81 -10.44 15.81 C-10.77 13.5 -11.1 11.19 -11.44 8.81 C-18.8 8.59 -25.31 8.91 -32.44 10.81 C-35.12 7.1 -36.71 4.32 -37.44 -0.19 C-25.11 -4.9 -11.68 -8.6 0 0 Z M-25.44 29.81 C-26.59 32.25 -26.59 32.25 -26.44 34.81 C-24.98 37.09 -23.67 37.72 -21.19 38.75 C-17.76 38.83 -15.78 38.05 -12.89 36.27 C-10.18 33.54 -10.5 30.52 -10.44 26.81 C-18.55 26.15 -18.55 26.15 -25.44 29.81 Z " fill="#000000" transform="translate(887.4375,570.1875)"/>
<path d="M0 0 C3.87 3.6 4.43 8.38 4.64 13.49 C4.67 15.85 4.67 18.21 4.66 20.57 C4.65 21.42 4.65 22.28 4.65 23.16 C4.65 25.88 4.63 28.6 4.62 31.32 C4.62 33.18 4.61 35.03 4.61 36.88 C4.6 41.4 4.58 45.93 4.56 50.45 C2.08 50.48 -0.4 50.5 -2.88 50.51 C-3.59 50.52 -4.29 50.53 -5.02 50.54 C-6.83 50.55 -8.64 50.5 -10.44 50.45 C-11.44 49.45 -11.44 49.45 -11.54 47.32 C-11.53 46.4 -11.52 45.48 -11.5 44.52 C-11.5 43.5 -11.49 42.48 -11.48 41.43 C-11.47 40.35 -11.45 39.26 -11.44 38.14 C-10.47 23.7 -10.47 23.7 -14.44 10.45 C-17.43 9.4 -19.06 9.34 -22.13 10.2 C-24.73 11.37 -24.73 11.37 -26.44 14.45 C-27.54 18.51 -27.64 22.52 -27.76 26.72 C-27.78 27.4 -27.8 28.08 -27.82 28.78 C-27.89 30.94 -27.94 33.1 -28 35.26 C-28.05 36.73 -28.09 38.2 -28.13 39.67 C-28.24 43.27 -28.34 46.86 -28.44 50.45 C-33.72 50.45 -39 50.45 -44.44 50.45 C-44.44 32.63 -44.44 14.81 -44.44 -3.55 C-33.44 -3.55 -33.44 -3.55 -30.75 -1.05 C-30.32 -0.23 -29.89 0.6 -29.44 1.45 C-28.91 1.1 -28.38 0.75 -27.83 0.39 C-27.13 -0.06 -26.42 -0.52 -25.69 -0.99 C-25 -1.44 -24.3 -1.89 -23.58 -2.36 C-15.98 -6.59 -6.95 -4.58 0 0 Z " fill="#000000" transform="translate(164.44140625,569.55078125)"/>
<path d="M0 0 C5.56 4.43 6.9 9.13 7.76 16.05 C8.06 19.75 8.21 23.29 8 27 C7 28 7 28 3.95 28.11 C2.6 28.11 1.25 28.11 -0.1 28.1 C-1.16 28.1 -1.16 28.1 -2.25 28.09 C-4.52 28.09 -6.79 28.08 -9.06 28.06 C-10.6 28.06 -12.14 28.05 -13.67 28.05 C-17.45 28.04 -21.22 28.02 -25 28 C-23.32 32.71 -23.32 32.71 -20.23 36.45 C-13.76 38.6 -8.65 37.46 -2.14 35.76 C1 35 1 35 5 35 C5 38.96 5 42.92 5 47 C-3.8 51.05 -14.46 52.48 -23.91 49.86 C-30.47 47.18 -35.74 43.39 -39 37 C-42.47 28.67 -42.16 18.59 -39.5 10.06 C-36.83 3.72 -32.83 -0.17 -26.64 -3.12 C-17.65 -6.33 -7.87 -5.61 0 0 Z M-23 10 C-23.66 11.98 -24.32 13.96 -25 16 C-19.06 16 -13.12 16 -7 16 C-8.71 11.19 -8.71 11.19 -12 8 C-16.48 6.3 -19.12 7.33 -23 10 Z " fill="#000000" transform="translate(296,570)"/>
<path d="M0 0 C4.98 4.32 5.93 10.73 7 17 C7.2 20.06 7.15 22.93 7 26 C3.39 27.13 0.03 27.11 -3.73 27.1 C-5.03 27.09 -6.33 27.09 -7.66 27.09 C-9.02 27.08 -10.39 27.07 -11.75 27.06 C-13.13 27.06 -14.51 27.05 -15.89 27.05 C-19.26 27.04 -22.63 27.02 -26 27 C-24.4 31.81 -24.4 31.81 -21.12 35.41 C-14.58 37.42 -9.57 36.56 -3 35 C-0.67 34.62 1.66 34.31 4 34 C4 37.96 4 41.92 4 46 C-6.98 50.43 -16.95 51.62 -28 47 C-34.92 44.01 -38.45 39.68 -41.31 32.88 C-42.89 24.01 -43.67 12.7 -38.59 4.81 C-28.65 -7.5 -12.78 -9.31 0 0 Z M-25 10 C-25.96 12.63 -25.96 12.63 -26 15 C-19.75 15.83 -14.23 16.04 -8 15 C-9.17 11.67 -10.08 9.09 -13 7 C-18.3 5.23 -20.87 6.35 -25 10 Z " fill="#000000" transform="translate(763,571)"/>
<path d="M0 0 C4.8 3.58 7.5 8.25 9 14 C9.36 18.69 9.39 23.31 9 28 C8 29 8 29 4.95 29.11 C3.6 29.11 2.25 29.11 0.9 29.1 C-0.16 29.1 -0.16 29.1 -1.25 29.09 C-3.52 29.09 -5.79 29.08 -8.06 29.06 C-9.6 29.06 -11.14 29.05 -12.67 29.05 C-16.45 29.04 -20.22 29.02 -24 29 C-21.54 34.43 -21.54 34.43 -17 38 C-11.13 39.71 -6.57 38.35 -0.77 36.69 C2 36 2 36 6 36 C6 39.96 6 43.92 6 48 C-5.53 51.96 -15.33 53.81 -27 49 C-32.36 45.53 -36.72 41.06 -39 35 C-39.53 31.3 -39.51 27.67 -39.44 23.94 C-39.44 22.97 -39.45 22 -39.46 21.01 C-39.41 15.57 -38.99 11.71 -36 7 C-35.46 6.15 -34.93 5.31 -34.38 4.44 C-24.49 -5.71 -12.2 -5.83 0 0 Z M-20 10 C-23.07 13.04 -23.07 13.04 -24 17 C-17.73 17 -11.46 17 -5 17 C-7.85 10.92 -7.85 10.92 -13 8 C-15.79 8 -17.5 8.75 -20 10 Z " fill="#000000" transform="translate(628,569)"/>
<path d="M0 0 C5.1 5.65 4.57 11.72 4.53 18.88 C4.53 19.76 4.53 20.64 4.53 21.55 C4.52 24.35 4.51 27.16 4.5 29.96 C4.49 31.86 4.49 33.77 4.48 35.67 C4.47 40.33 4.45 44.99 4.43 49.64 C0.8 49.64 -2.83 49.64 -6.57 49.64 C-7.56 47.66 -8.55 45.68 -9.57 43.64 C-10.41 44.43 -11.26 45.21 -12.13 46.02 C-16.9 49.93 -21.54 50.88 -27.63 50.52 C-32.15 49.93 -35.08 48.71 -38.57 45.64 C-42.35 40.17 -43.16 36.22 -42.57 29.64 C-40.95 24.47 -39.25 21.45 -34.57 18.64 C-28.3 16.48 -22.04 16.23 -15.45 15.89 C-12.67 15.96 -12.67 15.96 -11.57 14.64 C-11.82 12.12 -11.82 12.12 -12.57 9.64 C-18.73 6.56 -27.22 9.16 -33.57 10.64 C-34.24 9.38 -34.91 8.11 -35.57 6.83 C-36.12 5.77 -36.12 5.77 -36.69 4.69 C-37.57 2.64 -37.57 2.64 -37.57 -0.36 C-26.36 -5.2 -10.41 -9.01 0 0 Z M-25.57 28.64 C-26.24 32.05 -26.24 32.05 -26.57 35.64 C-24.1 38.11 -23.04 38.41 -19.57 38.64 C-15.8 37.8 -15.8 37.8 -12.57 35.64 C-11.3 32.5 -10.57 30.03 -10.57 26.64 C-18.31 26.25 -18.31 26.25 -25.57 28.64 Z " fill="#000000" transform="translate(518.56640625,570.35546875)"/>
<path d="M0 0 C3.95 5.03 3.2 10.96 3.16 17.08 C3.16 17.98 3.16 18.89 3.16 19.82 C3.15 22.69 3.14 25.56 3.12 28.44 C3.12 30.39 3.12 32.34 3.11 34.29 C3.1 39.07 3.08 43.85 3.06 48.62 C-0.57 48.62 -4.2 48.62 -7.94 48.62 C-8.93 46.64 -9.92 44.66 -10.94 42.62 C-11.78 43.41 -12.63 44.19 -13.5 45 C-18.24 48.89 -22.88 49.87 -28.94 49.56 C-33.95 48.9 -37.48 47.35 -40.94 43.62 C-43.83 38.68 -44.74 34.24 -43.94 28.62 C-42.3 23.46 -40.61 20.43 -35.94 17.62 C-28.28 14.88 -20 15 -11.94 14.62 C-12.54 12.6 -13.21 10.6 -13.94 8.62 C-20.1 5.54 -28.59 8.14 -34.94 9.62 C-35.61 8.36 -36.28 7.09 -36.94 5.81 C-37.49 4.75 -37.49 4.75 -38.06 3.67 C-38.94 1.62 -38.94 1.62 -38.94 -1.38 C-26.29 -6.85 -11.55 -9.34 0 0 Z M-26.94 27.62 C-28.02 30.54 -28.02 30.54 -27.94 33.62 C-26.27 36.74 -26.27 36.74 -23.69 37.5 C-19.94 37.67 -18.06 36.66 -14.94 34.62 C-12.33 31.24 -11.94 30 -11.94 25.62 C-19.81 25.02 -19.81 25.02 -26.94 27.62 Z " fill="#000000" transform="translate(1078.9375,571.375)"/>
<path d="M0 0 C5.97 6.57 8.59 15.71 8.29 24.45 C7.52 31.27 5.52 37.74 1 43 C-5.57 48.15 -12.58 50.73 -21 50 C-28.47 48.21 -35.05 45.09 -39.9 38.89 C-44.68 30.69 -45.18 20.94 -42.88 11.94 C-40.65 5.28 -37.31 -0.07 -31 -3.44 C-20.73 -7.81 -9.07 -6.61 0 0 Z M-24 9 C-27.88 13.16 -28.32 17.17 -28.21 22.77 C-27.83 26.79 -26.92 30.43 -25 34 C-22.38 36.39 -22.38 36.39 -19 37 C-14.83 36.43 -12.76 35.97 -10.12 32.62 C-7.45 26.38 -7.08 20.21 -9.12 13.69 C-10.43 10.51 -11 10 -14.06 8 C-18.21 6.59 -20.09 7.09 -24 9 Z " fill="#000000" transform="translate(944,571)"/>
<path d="M0 0 C5.65 4.38 8.84 8.9 10 16 C10.72 24.73 11 33.69 5.52 40.96 C-0.08 47.03 -6.94 50.6 -15.19 51.25 C-23.37 50.71 -30.1 47.73 -36 42 C-42.3 33.75 -41.87 22.91 -41 13 C-39.45 6.33 -34.6 1.67 -29 -2 C-19.53 -6.57 -8.68 -6.04 0 0 Z M-23 11 C-25.69 15.04 -25.4 18.14 -25.44 22.88 C-25.47 23.68 -25.5 24.48 -25.54 25.31 C-25.58 29.64 -25.4 31.47 -22.72 35.03 C-19.4 37.43 -17.88 37.74 -13.93 37.5 C-10.62 36.65 -9.03 34.64 -7 32 C-5.02 26.06 -5.29 19.39 -7.06 13.44 C-11.86 7.41 -16.62 7.25 -23 11 Z " fill="#000000" transform="translate(1217,570)"/>
<path d="M0 0 C-0.48 1.46 -0.96 2.92 -1.44 4.38 C-1.7 5.19 -1.97 6 -2.25 6.84 C-3 9 -3 9 -4 11 C-4.53 10.86 -5.07 10.71 -5.62 10.56 C-11.5 9.1 -16.95 8.77 -23 9 C-23.33 9.99 -23.66 10.98 -24 12 C-21.39 13.06 -18.79 14.07 -16.13 15.01 C-9.01 17.65 -4.18 20.54 0 27 C1.68 32.05 1.56 36.32 -0.56 41.19 C-3.26 46.06 -7.02 48.07 -12.17 49.68 C-21.69 52.08 -29.71 50.87 -39 48 C-40 47 -40 47 -40.1 44.28 C-40.09 43.18 -40.07 42.07 -40.06 40.94 C-40.05 39.83 -40.04 38.73 -40.04 37.59 C-40.02 36.74 -40.01 35.88 -40 35 C-38.54 35.14 -37.08 35.29 -35.62 35.44 C-34.81 35.52 -34 35.6 -33.16 35.68 C-31 36 -31 36 -29 37 C-26.96 37.07 -24.92 37.08 -22.88 37.06 C-21.78 37.05 -20.68 37.04 -19.55 37.04 C-18.71 37.02 -17.87 37.01 -17 37 C-16.34 35.68 -15.68 34.36 -15 33 C-18.19 31.33 -21.45 30.04 -24.81 28.75 C-30.97 26.19 -35.93 23.42 -39.44 17.62 C-40.52 12.58 -40.55 8.58 -38.88 3.75 C-35.55 -1.13 -31.15 -3.52 -25.39 -4.75 C-16.29 -5.71 -8.17 -3.96 0 0 Z " fill="#000000" transform="translate(388,570)"/>
<path d="M0 0 C1.39 0.01 2.79 0.02 4.18 0.04 C4.89 0.04 5.61 0.04 6.34 0.05 C8.1 0.06 9.86 0.08 11.62 0.1 C14.74 7.13 17.43 14.24 19.87 21.54 C20.13 22.3 20.39 23.07 20.65 23.86 C21.88 27.59 22.97 31.22 23.62 35.1 C23.76 34.46 23.89 33.83 24.03 33.18 C25.66 26.13 27.8 19.36 30.18 12.54 C30.49 11.65 30.79 10.77 31.11 9.87 C31.55 8.62 31.55 8.62 32 7.34 C32.26 6.6 32.53 5.85 32.8 5.08 C33.62 3.1 33.62 3.1 35.62 0.1 C38.25 -0.12 40.63 -0.18 43.25 -0.09 C43.95 -0.08 44.66 -0.06 45.39 -0.05 C47.13 -0.01 48.88 0.04 50.62 0.1 C51.12 1.09 51.12 1.09 51.62 2.1 C50.82 4.45 49.96 6.69 49 8.97 C48.72 9.64 48.44 10.31 48.16 11.01 C46.86 14.16 45.54 17.3 44.21 20.44 C42.12 25.4 40.15 30.32 38.51 35.45 C36.4 41.73 33.97 47.9 31.62 54.1 C29.35 54.12 27.08 54.14 24.81 54.16 C23.54 54.17 22.28 54.18 20.98 54.2 C17.62 54.1 17.62 54.1 14.62 53.1 C13.48 50.41 12.52 47.81 11.62 45.04 C11.12 43.54 10.62 42.05 10.12 40.56 C9.87 39.81 9.62 39.07 9.37 38.3 C6.74 30.55 3.59 23 0.49 15.43 C-1.42 10.7 -3.09 6.04 -4.38 1.1 C-3.38 0.1 -3.38 0.1 0 0 Z " fill="#000000" transform="translate(203.37890625,565.90234375)"/>
<path d="M0 0 C4.95 0 9.9 0 15 0 C15.02 9.5 15.04 19 15.05 28.5 C15.06 32.91 15.06 37.32 15.08 41.74 C15.09 45.99 15.09 50.24 15.09 54.5 C15.1 56.12 15.1 57.75 15.11 59.37 C15.11 61.65 15.11 63.92 15.11 66.19 C15.12 67.48 15.12 68.77 15.12 70.11 C15 73 15 73 14 74 C11.86 74.1 9.71 74.13 7.56 74.12 C6.39 74.13 5.21 74.13 4 74.13 C1 74 1 74 -1 73 C-0.67 48.91 -0.34 24.82 0 0 Z " fill="#000000" transform="translate(1153,546)"/>
<path d="M0 0 C1.86 0.03 1.86 0.03 3.75 0.06 C3.42 5.01 3.09 9.96 2.75 15.06 C0.87 15.29 -1 15.52 -2.94 15.75 C-7.04 16.44 -9.02 16.89 -12.44 19.38 C-15.46 23.86 -15.4 28.37 -15.57 33.68 C-15.61 34.92 -15.65 36.17 -15.69 37.46 C-15.73 38.75 -15.77 40.04 -15.81 41.38 C-15.86 42.69 -15.9 44 -15.94 45.35 C-16.05 48.59 -16.15 51.83 -16.25 55.06 C-18.56 55.09 -20.87 55.11 -23.19 55.12 C-24.48 55.14 -25.76 55.15 -27.09 55.16 C-30.25 55.06 -30.25 55.06 -31.25 54.06 C-31.34 52.41 -31.37 50.74 -31.36 49.08 C-31.36 48.02 -31.36 46.96 -31.36 45.87 C-31.36 44.71 -31.35 43.56 -31.35 42.37 C-31.35 41.2 -31.34 40.02 -31.34 38.81 C-31.34 35.04 -31.33 31.27 -31.31 27.5 C-31.31 24.95 -31.3 22.4 -31.3 19.85 C-31.29 13.59 -31.27 7.33 -31.25 1.06 C-27.29 1.06 -23.33 1.06 -19.25 1.06 C-18.59 3.04 -17.93 5.02 -17.25 7.06 C-16.65 6.64 -16.04 6.22 -15.42 5.79 C-14.62 5.24 -13.82 4.69 -13 4.12 C-12.21 3.58 -11.42 3.03 -10.61 2.47 C-7.04 0.34 -4.11 -0.07 0 0 Z " fill="#000000" transform="translate(342.25,564.9375)"/>
<path d="M0 0 C4.95 0 9.9 0 15 0 C15.02 7.53 15.04 15.06 15.05 22.59 C15.06 25.15 15.07 27.72 15.08 30.28 C15.09 33.96 15.09 37.63 15.1 41.31 C15.1 42.46 15.11 43.62 15.11 44.81 C15.11 46.4 15.11 46.4 15.11 48.02 C15.12 48.96 15.12 49.9 15.12 50.87 C15 53 15 53 14 54 C11.47 54.07 8.97 54.09 6.44 54.06 C5.37 54.06 5.37 54.06 4.28 54.05 C2.52 54.04 0.76 54.02 -1 54 C-1.03 46.79 -1.04 39.58 -1.05 32.38 C-1.06 29.92 -1.07 27.47 -1.08 25.02 C-1.09 21.49 -1.09 17.97 -1.1 14.45 C-1.1 13.35 -1.11 12.25 -1.11 11.12 C-1.11 10.09 -1.11 9.07 -1.11 8.02 C-1.12 7.12 -1.12 6.22 -1.12 5.3 C-1 3 -1 3 0 0 Z " fill="#000000" transform="translate(181,566)"/>
<path d="M0 0 C4.95 0 9.9 0 15 0 C15.02 7.53 15.04 15.06 15.05 22.59 C15.06 25.15 15.07 27.72 15.08 30.28 C15.09 33.96 15.09 37.63 15.1 41.31 C15.1 42.46 15.11 43.62 15.11 44.81 C15.11 45.87 15.11 46.93 15.11 48.02 C15.12 48.96 15.12 49.9 15.12 50.87 C15 53 15 53 14 54 C9.38 54 4.76 54 0 54 C0 36.18 0 18.36 0 0 Z " fill="#000000" transform="translate(396,566)"/>
<path d="M0 0 C0.68 -0.83 1.36 -1.65 2.06 -2.5 C5 -5 5 -5 8.81 -5.31 C9.86 -5.21 10.92 -5.11 12 -5 C11.47 1.21 10.64 5.06 6.38 9.81 C2.63 11.68 -0.9 11.66 -5 11 C-7.48 9.86 -9.67 8.44 -12 7 C-14.79 6.66 -14.79 6.66 -17 7 C-17.66 8.32 -18.32 9.64 -19 11 C-21.64 11 -24.28 11 -27 11 C-28 9 -28 9 -27.33 6.72 C-26.97 5.84 -26.62 4.97 -26.25 4.06 C-25.9 3.19 -25.56 2.31 -25.2 1.41 C-23.65 -1.69 -22.38 -3.5 -19.08 -4.7 C-11.89 -5.74 -6.17 -3.48 0 0 Z " fill="#000000" transform="translate(879,551)"/>
<path d="M0 0 C2.12 2.44 2.12 2.44 2.69 5.94 C2.12 9.44 2.12 9.44 0.5 11.81 C-2.42 13.81 -4.35 14.29 -7.88 14.44 C-11.72 13.39 -12.61 12.83 -14.88 9.44 C-15.2 5.6 -15.22 2.61 -12.88 -0.56 C-8.53 -2.43 -4.11 -2.23 0 0 Z " fill="#000000" transform="translate(409.875,547.5625)"/>
<path d="M0 0 C2.12 1.62 2.12 1.62 3 4 C2.93 7.73 2.85 10.05 0.31 12.88 C-2.58 14.28 -4.77 14.87 -8 15 C-12.57 12.87 -12.57 12.87 -14 10 C-14.49 4.84 -14.49 4.84 -14 2 C-10.15 -2.1 -5.06 -1.41 0 0 Z " fill="#000000" transform="translate(194,547)"/>
</svg>
