<?xml version="1.0" standalone="no"?>
<!DOCTYPE svg PUBLIC "-//W3C//DTD SVG 20010904//EN"
 "http://www.w3.org/TR/2001/REC-SVG-20010904/DTD/svg10.dtd">
<svg version="1.0" xmlns="http://www.w3.org/2000/svg"
 width="1080.000000pt" height="1080.000000pt" viewBox="0 0 1080.000000 1080.000000"
 preserveAspectRatio="xMidYMid meet">

<g transform="translate(0.000000,1080.000000) scale(0.100000,-0.100000)"
fill="#000000" stroke="none">
<path d="M3200 9673 c-618 -621 -1345 -1351 -1616 -1623 l-492 -495 -5 -3265
c-4 -1881 -3 -3293 3 -3330 11 -85 35 -185 55 -235 77 -189 124 -264 249 -393
169 -175 344 -264 607 -311 115 -21 116 -21 3445 -19 3144 3 3333 4 3394 21
270 73 395 141 556 301 185 186 276 373 315 648 6 41 8 1771 7 4475 -3 4174
-4 4411 -21 4473 -73 270 -140 394 -301 556 -151 152 -309 240 -541 301 -67
17 -173 18 -2300 21 l-2231 2 -1124 -1127z m3301 47 l519 0 0 -1080 0 -1080
-540 0 -540 0 0 1078 c0 593 3 1082 7 1086 4 3 13 4 21 1 7 -3 247 -5 533 -5z
m2136 -3 c2 -2 5 -2086 3 -2144 0 -10 -115 -13 -540 -13 l-540 0 0 1078 c0
593 2 1081 4 1083 5 4 1068 0 1073 -4z m-3237 -1077 l0 -1080 -540 0 -540 0 0
1080 0 1080 540 0 540 0 0 -1080z m-2235 -2918 c100 -28 121 -36 219 -84 111
-56 266 -172 266 -201 0 -6 -248 -402 -267 -427 -2 -2 -12 1 -21 8 -137 95
-255 142 -355 142 -49 0 -59 -4 -86 -31 -17 -17 -31 -35 -31 -40 0 -38 46 -67
210 -134 25 -10 69 -29 98 -42 29 -13 54 -23 57 -23 12 0 137 -79 187 -118 56
-43 127 -125 156 -180 54 -101 81 -265 62 -376 -44 -267 -295 -488 -620 -546
-127 -23 -445 -12 -544 19 -17 6 -56 17 -86 26 -75 23 -174 67 -257 115 -81
46 -193 144 -193 169 0 14 203 348 252 415 13 18 16 17 64 -16 71 -50 181
-103 244 -118 30 -6 63 -16 72 -21 10 -5 50 -9 90 -8 78 1 130 21 136 53 9 44
-8 65 -81 100 -40 20 -76 36 -81 36 -9 0 -90 35 -129 55 -16 8 -33 15 -38 15
-5 0 -51 24 -102 52 -111 63 -229 176 -269 258 -48 100 -63 167 -63 280 0 78
5 120 20 165 70 212 257 378 507 450 119 34 115 33 318 31 153 -2 199 -7 265
-24z m5533 -15 c9 -6 12 -219 12 -1007 0 -789 -3 -999 -12 -1002 -7 -2 -177
-3 -378 -2 l-365 1 -5 534 c-3 294 -8 527 -12 519 -5 -14 -57 -177 -95 -305
-8 -27 -23 -75 -33 -105 -10 -30 -21 -71 -25 -90 -4 -19 -11 -39 -15 -45 -4
-5 -13 -35 -20 -65 -7 -30 -17 -62 -21 -70 -4 -8 -20 -55 -34 -105 -42 -140
-66 -218 -76 -242 l-9 -23 -305 0 c-236 0 -307 3 -310 13 -2 6 -15 53 -30 102
-15 50 -30 97 -34 105 -4 8 -14 40 -21 70 -7 30 -16 60 -20 65 -4 6 -13 35
-20 65 -7 30 -16 60 -20 65 -4 6 -13 35 -20 65 -7 30 -16 60 -20 65 -4 6 -13
35 -20 65 -7 30 -16 60 -20 65 -4 6 -11 26 -15 45 -7 36 -11 46 -61 205 l-29
90 -3 -542 -2 -543 -375 0 -375 0 0 1005 0 1005 534 0 534 0 22 -72 c12 -40
28 -91 35 -113 7 -22 25 -80 40 -130 15 -49 33 -108 40 -130 8 -22 26 -80 41
-130 14 -49 32 -108 39 -130 7 -22 16 -56 20 -75 4 -19 11 -39 15 -45 4 -5 13
-35 20 -65 7 -30 16 -62 21 -70 4 -8 12 -34 18 -57 7 -24 15 -43 19 -43 5 0
15 28 24 63 9 34 26 94 38 132 43 140 61 201 76 255 8 30 19 64 24 75 5 11 20
63 35 115 14 52 30 102 34 110 4 8 14 40 21 70 7 30 16 60 20 65 4 6 11 26 15
45 11 53 36 124 46 131 14 9 1043 5 1057 -4z m-4153 -29 c4 -18 13 -46 20 -63
18 -43 95 -261 95 -270 0 -4 6 -21 14 -38 8 -18 22 -58 31 -89 9 -32 20 -58
23 -58 4 0 21 39 37 88 16 48 36 98 42 112 7 14 13 30 13 37 0 6 5 24 12 40 6
15 29 82 52 148 l41 120 433 3 c237 1 432 -1 432 -4 0 -8 -28 -59 -121 -224
-42 -74 -91 -162 -109 -195 -18 -33 -43 -78 -55 -100 -12 -22 -54 -98 -95
-170 -189 -335 -217 -385 -257 -463 l-43 -84 0 -384 0 -384 -381 0 -381 0 3
388 2 387 -25 45 c-14 25 -38 68 -53 95 -101 180 -158 282 -166 295 -5 8 -17
31 -27 50 -10 19 -48 88 -85 152 -37 64 -67 119 -67 122 0 2 -41 75 -91 162
-50 88 -95 168 -100 179 -9 20 -20 39 -51 87 -10 14 -18 31 -18 37 0 8 126 11
434 11 l434 0 7 -32z m-1755 -2273 c87 -10 174 -27 185 -36 5 -5 16 -9 24 -9
36 0 186 -87 259 -149 31 -27 28 -50 -16 -117 -21 -33 -56 -86 -76 -119 -21
-33 -46 -71 -55 -85 -10 -14 -28 -44 -41 -67 -26 -46 -56 -56 -81 -27 -19 24
-98 61 -167 78 -57 15 -67 15 -128 0 -117 -30 -184 -116 -184 -237 0 -76 19
-129 63 -175 98 -104 243 -104 406 -1 24 16 48 29 52 29 6 0 40 -49 104 -150
12 -19 40 -63 63 -98 23 -34 42 -65 42 -68 0 -3 8 -18 18 -32 36 -53 35 -58
-31 -110 -152 -119 -312 -173 -524 -173 -93 -1 -142 4 -210 21 -48 12 -92 25
-98 29 -5 4 -26 14 -45 21 -60 23 -168 99 -226 157 -63 64 -135 171 -155 229
-7 21 -16 44 -20 49 -3 6 -11 33 -17 60 -6 28 -16 75 -22 106 -14 64 -9 171
14 279 55 258 262 483 521 565 61 19 230 44 265 40 14 -2 50 -7 80 -10z m1595
-6 c112 -14 156 -28 274 -87 145 -73 273 -201 335 -337 15 -33 31 -67 35 -75
8 -15 20 -68 42 -178 20 -104 -9 -285 -65 -406 -38 -83 -113 -191 -168 -242
-44 -42 -141 -105 -203 -133 -27 -13 -59 -27 -70 -32 -41 -18 -153 -42 -235
-49 -373 -33 -702 137 -841 436 -42 91 -44 97 -63 179 -61 269 47 575 264 749
83 67 103 79 181 110 35 15 71 30 79 35 16 8 102 25 215 41 62 8 69 8 220 -11z
m4032 -9 c209 -27 382 -137 453 -286 41 -87 56 -206 41 -314 -7 -45 -16 -90
-21 -99 -5 -9 -19 -38 -31 -66 -29 -64 -129 -164 -198 -199 -112 -57 -173 -70
-341 -70 -99 0 -158 -3 -163 -10 -4 -6 -7 -110 -6 -231 l0 -220 -280 -3 -281
-2 0 739 c0 581 3 742 13 748 28 18 691 29 814 13z m-2325 -75 c9 -33 26 -91
38 -130 12 -38 28 -95 36 -125 8 -30 19 -64 24 -75 5 -11 16 -45 24 -75 8 -30
25 -86 36 -125 12 -38 28 -92 35 -119 18 -64 32 -78 40 -40 7 29 35 122 60
199 7 22 23 74 35 115 13 41 31 100 40 130 10 30 21 71 25 90 4 19 11 40 15
45 4 6 10 24 14 40 4 17 14 54 23 83 l16 52 396 -2 396 -3 0 -740 0 -740 -277
-3 -278 -2 0 379 c0 372 -6 444 -30 349 -5 -24 -19 -72 -29 -108 -11 -36 -23
-76 -26 -90 -3 -14 -10 -34 -15 -45 -4 -11 -20 -60 -35 -110 -14 -49 -32 -108
-40 -130 -7 -22 -25 -80 -40 -130 -15 -49 -28 -96 -30 -102 -3 -10 -59 -13
-234 -13 l-230 0 -15 54 c-9 30 -16 59 -16 65 0 6 -4 19 -9 29 -5 9 -21 58
-36 107 -15 50 -44 146 -66 215 -21 69 -49 162 -62 207 -13 46 -26 86 -30 89
-4 4 -7 -167 -7 -379 l0 -387 -280 0 -280 0 0 745 0 745 397 -2 398 -3 17 -60z"/>
<path d="M4186 2873 c-69 -20 -109 -55 -143 -120 -117 -233 146 -479 337 -315
115 98 118 291 7 389 -33 29 -56 38 -132 55 -11 3 -43 -1 -69 -9z"/>
<path d="M8155 2978 c-3 -8 -4 -57 -3 -109 l3 -94 66 -3 c63 -3 68 -1 97 28
39 38 48 79 27 119 -22 44 -56 62 -124 68 -48 5 -62 3 -66 -9z"/>
</g>
</svg>
